<svg width="1152" height="700" viewBox="0 0 1152 700" fill="none" xmlns="http://www.w3.org/2000/svg">
<rect width="1152" height="700" fill="black"/>
<g clip-path="url(#clip0)">
<path d="M101.734 596.634L79.7036 606.213C79.6042 606.212 79.5031 606.231 79.4061 606.274C79.0359 606.435 78.8662 606.865 79.0272 607.235L79.0312 607.245C79.0326 607.249 79.0345 607.252 79.0359 607.256C79.0374 607.26 79.0383 607.264 79.0398 607.268C79.1986 607.676 79.0076 608.132 78.6048 608.308L76.8663 609.064C76.4637 609.239 75.9995 609.067 75.8094 608.673C75.8094 608.672 75.7985 608.651 75.7985 608.651L75.7942 608.641C75.6332 608.271 75.2026 608.101 74.8324 608.262C74.7354 608.305 74.6526 608.366 74.5855 608.439L73.4428 608.936C71.2774 609.877 69.479 611.433 68.2419 613.435C68.0297 613.778 68.136 614.229 68.4795 614.441C68.8228 614.653 69.2734 614.547 69.4856 614.203C70.5651 612.456 72.135 611.099 74.0258 610.276L74.7703 609.953L76.9708 615.014C76.1471 615.372 74.879 615.858 73.444 617.053C71.0499 619.048 69.6431 621.856 69.3552 624.752C68.7594 623.382 67.2657 620.586 68.3653 616.74C68.4763 616.352 68.2516 615.947 67.8634 615.836C67.4753 615.725 67.0707 615.95 66.9597 616.338C66.2287 618.895 66.4112 621.648 67.4733 624.091L68.3685 626.149C68.2923 626.178 68.2164 626.207 68.1418 626.239C65.8991 627.214 64.868 629.832 65.8431 632.074L67.838 636.662C69.4504 640.37 74.7894 640.138 76.0979 636.331C79.0792 637.668 82.4943 637.729 85.4102 636.461C85.4102 636.461 85.4123 636.46 85.4131 636.46C89.1882 634.817 91.815 631.253 92.2679 627.159C92.5145 624.957 93.0959 622.876 94.0571 620.857C94.2306 620.493 94.0757 620.057 93.7112 619.883C93.3468 619.71 92.9105 619.864 92.7371 620.229C91.6471 622.519 90.9787 625.15 90.8539 626.666C90.8407 626.776 90.8274 626.886 90.815 626.997C90.4193 630.573 88.126 633.685 84.8299 635.119C84.829 635.12 84.8282 635.12 84.8274 635.121C81.951 636.371 78.4905 636.14 75.6394 634.45C68.6104 630.283 69.3513 619.921 76.8093 616.678L77.765 616.262C78.1597 616.6 78.6711 616.793 79.1881 616.805C79.5104 616.813 79.8507 616.747 80.1505 616.616C81.6065 615.983 83.1807 615.633 83.257 613.874L106.469 603.782L107.135 605.313C107.417 605.963 107.2 606.728 106.618 607.133L99.9086 611.798C97.5784 613.418 95.6194 615.442 94.0862 617.813C93.8669 618.152 93.9641 618.604 94.303 618.823C94.642 619.043 95.0945 618.946 95.3138 618.607C96.7431 616.396 98.5699 614.509 100.743 612.998L107.453 608.333C108.605 607.532 109.035 606.017 108.475 604.73L107.518 602.528L105.621 598.165C104.972 596.672 103.228 595.985 101.734 596.634ZM72.6646 634.563C72.8468 634.982 72.6541 635.471 72.2352 635.653C71.8164 635.836 71.3273 635.643 71.1452 635.224C70.963 634.805 71.1557 634.316 71.5746 634.134C71.9934 633.952 72.4825 634.145 72.6646 634.563ZM68.7246 627.58C68.7993 627.547 68.8752 627.518 68.9521 627.492C70.371 630.755 70.2876 630.566 70.3655 630.735C69.2958 631.132 68.3659 631.953 67.8665 633.061L67.1839 631.491L67.1838 631.491C66.5303 629.988 67.2214 628.233 68.7246 627.58ZM74.1681 635.241C74.2608 635.305 74.5752 635.515 74.7826 635.641C74.5546 636.517 73.9348 637.253 73.0902 637.62C71.3234 638.388 69.2888 637.291 68.9724 635.381C68.7278 633.926 69.6037 632.468 71.0794 632.039C71.211 632.245 71.4334 632.561 71.4919 632.641C70.0499 632.905 69.2149 634.452 69.8043 635.807C70.7062 637.881 73.8152 637.527 74.1681 635.241ZM81.7741 613.584C81.8664 613.968 81.6695 614.362 81.3059 614.52C81.2529 614.543 79.5532 615.284 79.4987 615.302C79.1014 615.434 78.6656 615.245 78.4954 614.853L76.6428 610.593C76.9132 610.58 77.186 610.519 77.4494 610.404L79.1879 609.648C79.4513 609.534 79.6822 609.376 79.8758 609.187C81.8758 613.787 81.7507 613.486 81.7741 613.584ZM105.886 602.441L82.8853 612.442L80.6847 607.381L102.317 597.975C103.072 597.647 103.952 597.994 104.28 598.748L105.886 602.441Z" fill="#7AF2FA"/>
<path d="M83.0459 606.987C82.6756 607.148 82.5061 607.578 82.6671 607.948L83.697 610.317C83.858 610.687 84.2885 610.857 84.6588 610.696C85.029 610.535 85.1986 610.104 85.0376 609.734L84.0077 607.366C83.8469 606.995 83.4163 606.826 83.0459 606.987Z" fill="#7AF2FA"/>
<path d="M88.2748 604.713C87.9046 604.874 87.735 605.305 87.896 605.675L88.9259 608.043C89.0868 608.414 89.5174 608.583 89.8877 608.422C90.258 608.261 90.4276 607.831 90.2666 607.46L89.2367 605.092C89.0758 604.722 88.6451 604.552 88.2748 604.713Z" fill="#7AF2FA"/>
<path d="M93.5036 602.44C93.1333 602.601 92.9638 603.031 93.1248 603.401L94.1547 605.77C94.3157 606.14 94.7463 606.31 95.1165 606.149C95.4868 605.988 95.6563 605.557 95.4953 605.187L94.4654 602.818C94.3046 602.448 93.874 602.278 93.5036 602.44Z" fill="#7AF2FA"/>
<path d="M98.7325 600.166C98.3622 600.327 98.1926 600.758 98.3535 601.128L99.3834 603.496C99.5444 603.867 99.975 604.036 100.345 603.875C100.716 603.714 100.885 603.284 100.724 602.913L99.6943 600.545C99.5334 600.175 99.1028 600.005 98.7325 600.166Z" fill="#7AF2FA"/>
<path d="M69.9332 590.741C69.563 590.902 69.3933 591.333 69.5543 591.703L75.0147 604.261C75.1758 604.632 75.6064 604.801 75.9767 604.64C76.3469 604.479 76.5165 604.049 76.3555 603.678L70.895 591.12C70.734 590.75 70.3035 590.58 69.9332 590.741Z" fill="#7AF2FA"/>
<path d="M84.5095 590.296C84.1338 590.148 83.7094 590.333 83.5614 590.708L78.8254 602.731C78.6773 603.107 78.8619 603.532 79.2376 603.679C79.4254 603.754 79.6254 603.744 79.797 603.67C79.9686 603.595 80.1116 603.455 80.1856 603.267L84.9218 591.244C85.0697 590.869 84.8852 590.444 84.5095 590.296Z" fill="#7AF2FA"/>
<path d="M72.4218 605.516L60.3986 600.78C60.023 600.632 59.5985 600.817 59.4506 601.192C59.3025 601.568 59.4871 601.992 59.8628 602.14L71.886 606.876C72.0738 606.95 72.2738 606.941 72.4454 606.867C72.617 606.792 72.76 606.652 72.834 606.464C72.9819 606.088 72.7974 605.664 72.4218 605.516Z" fill="#7AF2FA"/>
<path d="M77.9658 619.257C74.3105 620.846 72.6298 625.113 74.2191 628.768C75.8084 632.424 80.0753 634.105 83.7306 632.515C87.3858 630.926 89.0665 626.659 87.4772 623.004C85.8878 619.348 81.621 617.668 77.9658 619.257ZM83.1476 631.174C80.2316 632.442 76.8277 631.101 75.5598 628.186C74.292 625.27 75.6328 621.866 78.5487 620.598C81.4647 619.33 84.8685 620.671 86.1364 623.587C87.4043 626.503 86.0635 629.907 83.1476 631.174Z" fill="#7AF2FA"/>
</g>
<g clip-path="url(#clip1)">
<path d="M944.356 119.645C934.912 110.201 922.356 105 909.001 105C895.645 105 883.089 110.201 873.646 119.645C864.202 129.089 859.001 141.645 859.001 155C859.001 168.355 864.202 180.911 873.646 190.355C883.089 199.799 895.645 205 909.001 205C922.356 205 934.912 199.799 944.356 190.355C953.8 180.911 959.001 168.355 959.001 155C959.001 141.644 953.8 129.088 944.356 119.645ZM951.151 135.262C947.213 146.254 940.82 155.768 932.627 162.81C925.365 169.052 916.824 173.14 908.412 174.43C907.258 168.069 907.858 161.867 910.154 156.625C917.497 155.823 924.771 152.162 930.742 146.237C936.796 140.229 941.053 132.392 943.167 123.423C946.399 126.917 949.102 130.906 951.151 135.262ZM909.001 108.452C921.02 108.452 931.989 113.031 940.257 120.536C939.742 123.214 939.029 125.791 938.129 128.248C929.019 117.521 914.653 110.814 898.677 109.608C901.999 108.852 905.454 108.452 909.001 108.452ZM888.908 113.016C908.391 111.7 926.54 118.887 936.623 131.866C934.587 136.226 931.909 140.126 928.657 143.436C922.895 136.308 914.791 130.776 905.094 127.377C895.451 123.996 884.774 122.98 873.969 124.384C878.107 119.655 883.184 115.767 888.908 113.016ZM870.85 128.363C882.331 126.281 893.762 127.062 903.952 130.634C912.988 133.802 920.799 139.154 926.122 145.795C921.191 149.975 915.52 152.555 909.832 153.188C905.466 147.23 898.659 142.761 890.541 140.553C882.301 138.311 873.374 138.546 864.538 141.209C865.978 136.577 868.125 132.254 870.85 128.363ZM862.453 155C862.453 151.629 862.817 148.341 863.5 145.172C866.086 144.274 868.683 143.6 871.269 143.151C866.543 156.376 867.902 172.134 874.809 186.549C867.144 178.248 862.453 167.162 862.453 155ZM882.668 193.361C871.803 177.153 868.961 157.858 875.156 142.645C879.949 142.229 884.666 142.597 889.159 143.759C885.867 152.314 885.128 162.098 887.032 172.194C888.928 182.248 893.395 192.013 900.027 200.676C893.688 199.433 887.807 196.9 882.668 193.361ZM909.001 201.548C907.661 201.548 906.335 201.488 905.024 201.376C897.472 192.47 892.427 182.173 890.424 171.555C888.65 162.145 889.38 152.705 892.469 144.774C898.554 146.956 903.624 150.576 907.016 155.185C904.04 161.946 903.573 170.075 905.719 178.209C907.898 186.466 912.565 194.08 919.289 200.4C915.978 201.15 912.535 201.548 909.001 201.548ZM923.239 199.318C921.17 197.528 919.288 195.616 917.606 193.601C931.449 191.076 944.441 181.988 953.473 168.756C948.991 183.218 937.633 194.682 923.239 199.318ZM915.225 190.488C912.467 186.544 910.428 182.275 909.188 177.804C918.242 176.378 927.085 172.125 934.877 165.428C942.635 158.759 948.859 150.008 953.046 139.934C954.667 144.661 955.549 149.729 955.549 155C955.549 156.203 955.503 157.397 955.413 158.578C946.813 176.116 931.511 188.245 915.225 190.488Z" fill="white"/>
</g>
<path d="M145.956 414.877L134.404 403.326C134.403 403.325 134.402 403.323 134.402 403.322C134.401 403.32 134.399 403.32 134.398 403.32L131.075 399.997C130.964 399.894 119.952 389.625 120.419 381.833C120.582 380.36 120.576 378.819 120.382 377.229C119.716 371.764 116.973 366.377 112.657 362.062C103.676 353.08 90.5717 351.571 83.4462 358.696C78.4422 363.699 77.5474 371.857 81.0693 379.649C79.1933 381.787 78.1578 384.494 78.1578 387.365C78.1578 390.497 79.3787 393.443 81.5933 395.657C83.808 397.872 86.7536 399.093 89.8861 399.093C93.0186 399.093 95.9643 397.873 98.1797 395.657C98.3948 395.442 98.5898 395.215 98.7849 394.988C100.717 395.514 102.627 395.788 104.467 395.787C105.239 395.787 105.993 395.725 106.737 395.634C114.499 395.36 124.645 406.215 124.778 406.357L128.073 409.651L139.629 421.206C139.838 421.416 140.122 421.533 140.419 421.533C140.715 421.533 140.999 421.416 141.208 421.206L145.958 416.456C146.393 416.02 146.393 415.313 145.956 414.877ZM89.473 377.889C88.9042 379.897 86.7745 385.48 80.4104 386.977C80.5057 384.587 81.4712 382.352 83.173 380.65C84.868 378.955 87.0931 377.991 89.473 377.889ZM80.5727 389.223C88.7933 387.492 91.2253 380.058 91.7367 378.049C93.568 378.408 95.2519 379.301 96.6008 380.65C97.9772 382.026 98.84 383.725 99.1928 385.505C90.9782 387.24 88.5477 394.67 88.037 396.679C86.2057 396.319 84.5219 395.427 83.173 394.078C81.8263 392.731 80.9338 391.051 80.5727 389.223ZM90.2948 396.839C90.8494 394.819 92.9375 389.255 99.3588 387.75C99.2658 390.051 98.3539 392.325 96.6008 394.078C94.9042 395.774 92.6769 396.738 90.2948 396.839ZM100.143 393.035C102.605 388.578 101.957 382.848 98.1797 379.071C95.9643 376.856 93.0186 375.635 89.8861 375.635C87.2866 375.635 84.8233 376.487 82.7918 378.038C80.0085 371.321 80.8325 364.466 85.0243 360.274C91.2782 354.021 102.967 355.53 111.077 363.64C115.041 367.605 117.558 372.527 118.165 377.499C118.758 382.369 117.436 386.7 114.444 389.693C112.392 391.745 109.688 392.998 106.651 393.402C106.57 393.405 106.487 393.401 106.406 393.406C106.312 393.412 106.222 393.433 106.136 393.461C104.234 393.653 102.212 393.515 100.143 393.035ZM111.645 394.274C113.271 393.534 114.755 392.542 116.023 391.273C117.295 390.002 118.304 388.53 119.046 386.906C121.642 394.249 129.16 401.268 129.527 401.606L132.032 404.111L128.861 407.282L126.386 404.808C126.023 404.415 119.001 396.884 111.645 394.274ZM140.417 418.837L130.44 408.861L133.611 405.69L143.587 415.666L140.417 418.837Z" fill="white"/>
<g clip-path="url(#clip2)">
<path d="M70.7585 80.3927C70.0295 80.588 69.5964 81.3382 69.7917 82.0671C69.987 82.7961 70.7372 83.2292 71.4662 83.0339C72.1951 82.8385 72.6283 82.0884 72.4329 81.3594C72.2376 80.6304 71.4874 80.1973 70.7585 80.3927Z" fill="white"/>
<path d="M89.2631 47.5025L87.7536 41.8688L89.0742 41.515C90.8372 41.0426 92.311 39.9114 93.2243 38.3297C94.1375 36.7477 94.3803 34.9057 93.9079 33.1427C93.7125 32.4135 92.9628 31.9805 92.2335 32.176L84.3099 34.2991C83.5805 34.4945 83.1477 35.2443 83.3431 35.9735L84.7585 41.2559L86.4348 47.5118C82.282 47.634 77.3879 48.2193 72.1226 49.2314C69.5449 49.7272 66.9156 50.3208 64.2967 50.9944L62.8789 45.7032L64.1995 45.3493C65.9625 44.8769 67.4363 43.7457 68.3496 42.164C69.2627 40.582 69.5056 38.74 69.0332 36.977C68.8378 36.2478 68.0881 35.8149 67.3588 36.0103L59.4352 38.1334C58.7058 38.3288 58.273 39.0786 58.4684 39.8079L59.8838 45.0903L61.6555 51.7021C59.0506 52.4281 56.4767 53.2286 53.9965 54.0882C48.9307 55.8444 44.3996 57.7845 40.742 59.7551L39.4196 54.8199L40.7402 54.466C42.5032 53.9937 43.977 52.8624 44.8903 51.2807C45.8034 49.6988 46.0463 47.8568 45.5739 46.0938C45.3785 45.3645 44.6288 44.9316 43.8995 45.127L35.9758 47.2501C35.2465 47.4456 34.8137 48.1954 35.0091 48.9246L36.4245 54.207L38.2879 61.1614C33.2067 64.2812 30.9709 67.1329 31.6433 69.6423L33.7664 77.5659L35.8895 85.4895L38.0126 93.4131C38.5508 95.4215 40.8177 96.695 44.7504 97.1982C51.0707 98.007 59.9271 96.7642 66.2233 95.4945C68.8896 94.9576 71.606 94.3197 74.297 93.5987C76.988 92.8776 79.6594 92.0718 82.2366 91.2038C88.2557 89.1784 96.5981 85.8168 101.685 81.9427C104.839 79.5405 106.166 77.3042 105.627 75.2958L103.504 67.3722L101.381 59.4486L99.2581 51.525C98.5857 49.0156 95.2236 47.6638 89.2631 47.5025ZM86.3382 36.5864L91.3958 35.2312C91.349 35.8337 91.1674 36.4232 90.8563 36.9624C90.3082 37.9116 89.4239 38.5905 88.3665 38.8738L87.0459 39.2276L86.3382 36.5864ZM61.4635 40.4208L66.5211 39.0656C66.4743 39.668 66.2927 40.2575 65.9816 40.7967C65.4335 41.7459 64.5492 42.4248 63.4918 42.7081L62.1712 43.062L61.4635 40.4208ZM38.0042 49.5375L43.0618 48.1823C43.015 48.7848 42.8334 49.3743 42.5223 49.9134C41.9742 50.8627 41.0899 51.5415 40.0325 51.8248L38.7119 52.1787L38.0042 49.5375ZM73.4825 51.7587C77.9239 50.9376 82.0596 50.4352 85.6482 50.2765L80.9093 56.0328C78.085 56.3865 74.8691 56.957 71.4706 57.7058L73.4825 51.7587ZM63.6814 53.9806C65.9188 53.3811 68.1661 52.8421 70.3886 52.3715L68.3376 58.4343C66.1929 58.9576 63.9937 59.5469 61.8757 60.1658L57.0681 55.9408C59.2283 55.2371 61.444 54.5801 63.6814 53.9806ZM54.0823 56.9568L58.7983 61.1012C55.4813 62.1518 52.4095 63.2658 49.786 64.3711L42.8055 61.7562C45.9927 60.0993 49.8255 58.4666 54.0823 56.9568ZM39.6903 63.5092L46.283 65.9789C45.1258 66.5653 44.1556 67.1276 43.386 67.6598C42.3273 68.3917 40.9663 69.5065 41.0067 70.9087C36.1518 70.6883 34.4634 69.6023 34.2845 68.9346C34.1007 68.2487 35.0606 66.3558 39.6903 63.5092ZM55.6758 94.3595C45.3719 95.4116 40.9859 93.9445 40.6538 92.7054L39.553 88.597C40.4365 88.8839 41.4719 89.1031 42.6598 89.2523C45.6772 89.6313 49.6714 89.5737 54.2639 89.0902L55.6758 94.3595ZM53.5472 86.4152C49.3456 86.8364 45.7223 86.8811 43.0006 86.5392C39.946 86.1554 38.6837 85.3526 38.5307 84.7818L37.4361 80.6967C38.3102 80.9823 39.3326 81.2011 40.5041 81.351C43.5221 81.7372 47.5291 81.6783 52.1458 81.1853L53.5472 86.4152ZM51.4296 78.5123C41.1256 79.5644 36.7396 78.0973 36.4076 76.8582L35.3155 72.7826C37.6102 73.5312 40.9364 73.8152 45.2784 73.6284C46.7719 73.5629 48.3642 73.4393 50.0228 73.262L51.4296 78.5123ZM64.2534 93.0923C62.2546 93.4702 60.3015 93.7865 58.42 94.036L57.0064 88.7604C58.8902 88.5073 60.8416 88.1908 62.8389 87.8131L64.2534 93.0923ZM62.2804 85.1357C60.225 85.5235 58.2201 85.8456 56.2929 86.0974L54.8871 80.8509C57.715 80.4652 60.6849 79.9382 63.7051 79.2862C63.6711 79.3406 63.6356 79.3935 63.6027 79.4488C62.5681 81.1822 62.1152 83.1596 62.2804 85.1357ZM54.1737 78.1885L52.7639 72.9272C57.1526 72.3285 61.8823 71.388 66.605 70.1742L68.0204 75.4565C63.2817 76.6734 58.5439 77.6083 54.1737 78.1885ZM80.1458 89.0147C78.4289 89.573 76.676 90.1015 74.9076 90.5949L73.8484 86.6418C73.653 85.9126 72.9033 85.4796 72.1739 85.6751C71.4445 85.8705 71.0118 86.6203 71.2072 87.3495L72.2664 91.3026C70.4882 91.7595 68.7058 92.1782 66.9398 92.5532L65.217 86.1237C65.1985 86.0545 65.181 85.9851 65.1644 85.9142C64.3149 82.2988 66.4611 78.7133 70.0508 77.7515C71.814 77.279 73.6565 77.5215 75.2379 78.4336C76.7506 79.3078 77.8607 80.7084 78.3641 82.3785C78.3849 82.4471 78.4045 82.516 78.4231 82.5852L80.1458 89.0147ZM88.2656 86.0387C86.5117 86.7635 84.6621 87.4661 82.7418 88.1383L81.3273 82.8591C83.246 82.1876 85.0943 81.4858 86.852 80.7633L88.2656 86.0387ZM86.1384 78.1002C84.3435 78.8458 82.4457 79.5696 80.4712 80.2615C79.6458 78.5114 78.3084 77.0499 76.605 76.0655C76.5093 76.0102 76.4119 75.9591 76.3147 75.9073C79.256 74.9619 82.0909 73.9335 84.7326 72.8537L86.1384 78.1002V78.1002ZM84.0192 70.1912C79.9446 71.874 75.3741 73.4333 70.6616 74.7487L69.2462 69.4665C73.9459 68.1555 78.5121 66.6049 82.6094 64.9298L84.0192 70.1912ZM67.2199 67.1866C61.6231 68.6863 55.9747 69.8018 50.8851 70.4128C49.0364 70.6353 47.2682 70.7893 45.6193 70.8738C45.5315 70.8466 45.4395 70.8279 45.3444 70.8189C44.7405 70.7613 44.3314 70.6823 44.0593 70.6095C47.0524 67.762 57.9228 64.1917 61.9296 63C64.461 62.2454 67.1379 61.5282 69.709 60.9155C74.1306 59.8591 78.3185 59.0849 81.8199 58.6765C86.2334 58.1607 88.1854 58.3803 88.9828 58.574C88.7312 58.8259 88.2932 59.1969 87.54 59.6965C86.1255 60.4129 84.5938 61.1238 82.9837 61.8107C78.2732 63.8266 72.8221 65.6856 67.2199 67.1866ZM102.986 76.0035C103.318 77.2425 100.254 80.7061 90.8038 84.9469L89.3919 79.6775C93.6113 77.7997 97.099 75.8528 99.5225 74.0159C100.477 73.2927 101.264 72.5853 101.885 71.895L102.986 76.0035ZM100.863 68.0799C101.016 68.6507 100.324 69.9772 97.8708 71.8368C95.6849 73.4936 92.525 75.2664 88.6752 77.0027L87.2738 71.7728C91.5187 69.8913 95.0183 67.9389 97.4387 66.0954C98.3782 65.3799 99.1542 64.6792 99.7685 63.9948L100.863 68.0799ZM98.74 60.1563C99.072 61.3953 96.0072 64.8589 86.5576 69.0996L85.1509 63.8497C89.0331 62.1308 94.8269 59.2253 97.6488 56.0838L98.74 60.1563ZM91.7753 57.3096C91.1024 56.0575 89.3228 55.7755 88.0034 55.6753C87.0885 55.6059 85.9993 55.6055 84.7468 55.6737L89.2227 50.2369C94.6554 50.3874 96.4331 51.5468 96.6169 52.2327C96.799 52.9125 95.8668 54.6979 91.7753 57.3096Z" fill="white"/>
</g>
<path d="M556.3 413.619C556.3 402.124 546.948 392.773 535.453 392.773C523.959 392.773 514.607 402.124 514.607 413.619C514.607 425.114 523.959 434.465 535.453 434.465C546.948 434.465 556.3 425.114 556.3 413.619V413.619ZM535.453 432.123C525.25 432.123 516.949 423.822 516.949 413.619C516.949 403.416 525.25 395.115 535.453 395.115C545.657 395.115 553.958 403.416 553.958 413.619C553.958 423.822 545.657 432.123 535.453 432.123Z" fill="#6EDDA1"/>
<path d="M535.453 403.847C530.222 400.127 522.817 403.844 522.817 410.375C522.817 414.437 532.614 424.768 535.453 427.714C535.598 427.53 548.09 414.981 548.09 410.375C548.09 403.852 540.693 400.121 535.453 403.847V403.847ZM535.453 424.323C533.58 422.32 525.16 413.096 525.16 410.375C525.16 407.253 527.7 404.713 530.822 404.713C533.64 404.713 535.013 406.639 535.453 406.946L536.248 406.213C539.854 402.885 545.747 405.455 545.747 410.375C545.747 413.095 537.331 422.316 535.453 424.323Z" fill="#6EDDA1"/>
<path d="M561.011 426.866C568.359 422.035 562.64 417.883 562.64 413.619C562.64 412.534 563.14 411.24 563.623 409.988C565.574 404.939 565.231 403.066 560.264 399.889C557.309 397.999 557.061 397.675 556.153 394.229C554.704 388.732 553.179 387.635 547.54 387.94C543.959 388.134 543.571 387.992 540.909 385.803C536.462 382.148 534.449 382.145 529.998 385.803C528.965 386.653 527.988 387.456 527.053 387.76C524.533 388.582 520.275 386.9 517.505 388.918C514.704 390.958 515.015 395.52 513.466 397.647C512.87 398.465 511.789 399.156 510.644 399.889C505.675 403.067 505.333 404.94 507.284 409.988C508.591 413.372 508.592 413.863 507.284 417.25C505.315 422.344 505.706 424.203 510.664 427.362L496 449.624L508.959 451.951L516.212 462.939L530.244 441.636C534.945 445.486 536.886 444.696 541.373 441.055L555.788 462.939L563.041 451.951L576 449.624L561.011 426.866ZM516.21 458.684L510.361 449.823L499.91 447.946L512.59 428.697C515.382 430.994 514.307 435.99 517.505 438.32C520.806 440.724 525.109 437.929 528.394 440.186L516.21 458.684ZM535.453 441.82C534.156 441.82 532.859 440.754 531.486 439.625C529.098 437.662 527.966 436.893 525.066 436.893C522.727 436.893 520.207 437.391 518.884 436.426C517.015 435.065 517.202 430.742 515.359 428.212C514.504 427.038 513.183 426.193 511.906 425.376C508.015 422.887 507.882 422.201 509.469 418.094C510.988 414.161 510.993 413.091 509.469 409.144C507.882 405.036 508.015 404.351 511.906 401.862C515.359 399.653 515.958 398.853 517.019 394.826C517.465 393.135 517.886 391.538 518.884 390.811C520.726 389.469 524.781 390.963 527.779 389.987C529.134 389.546 530.329 388.563 531.486 387.613C535.049 384.684 535.859 384.684 539.421 387.613C542.522 390.162 543.456 390.507 547.667 390.279C552.155 390.035 552.729 390.431 553.888 394.826C554.278 396.305 554.681 397.835 555.548 399.026C557.379 401.539 561.551 402.674 562.277 404.905C562.643 406.027 562.058 407.541 561.439 409.144C559.919 413.076 559.914 414.147 561.439 418.094C563.022 422.192 562.9 422.882 559.002 425.376C555.549 427.584 554.949 428.384 553.888 432.412C552.729 436.809 552.152 437.202 547.667 436.959C546.132 436.876 544.545 436.789 543.129 437.25C540.209 438.201 537.851 441.82 535.453 441.82V441.82ZM561.639 449.823L555.79 458.684L543.295 439.714C545.918 438.381 550.426 440.488 553.402 438.32C556.204 436.279 555.892 431.718 557.441 429.591C557.818 429.074 558.39 428.606 559.05 428.147L572.09 447.946L561.639 449.823Z" fill="#6EDDA1"/>
<path d="M348.553 319.854L347.25 318.55C346.37 317.67 345.207 317.179 343.975 317.166C342.732 317.177 341.573 317.624 340.705 318.493L322.789 336.409C322.77 336.428 322.752 336.448 322.734 336.468L300.536 363.03L299.993 362.487C299.534 362.027 298.731 362.026 298.271 362.487L295.495 365.263C295.265 365.494 295.138 365.799 295.139 366.125C295.139 366.451 295.265 366.756 295.495 366.985L300.12 371.609C300.349 371.839 300.655 371.966 300.981 371.966C301.306 371.966 301.612 371.839 301.841 371.609L304.619 368.831C305.092 368.357 305.091 367.586 304.618 367.111L304.074 366.567L330.636 344.369C330.656 344.353 330.676 344.334 330.695 344.316L348.611 326.4C350.399 324.611 350.374 321.675 348.553 319.854ZM300.98 369.943L297.16 366.123L299.132 364.151L299.964 364.983L302.119 367.139L302.12 367.14L302.951 367.971L300.98 369.943ZM322.274 339.805L327.299 344.83L302.805 365.299L301.804 364.298L322.274 339.805ZM347.348 325.136L329.459 343.024L328.675 343.679L323.424 338.428L324.08 337.644L341.967 319.756C343.06 318.664 344.862 318.689 345.986 319.813L347.289 321.117C348.414 322.241 348.439 324.044 347.348 325.136Z" fill="white"/>
<path d="M341.264 354.483C336.438 354.483 332.511 358.41 332.511 363.236C332.511 368.063 336.438 371.99 341.264 371.99C346.09 371.99 350.017 368.063 350.017 363.236C350.017 358.41 346.09 354.483 341.264 354.483ZM334.297 363.236C334.297 361.458 334.973 359.838 336.074 358.606C336.841 360.012 338.499 363.905 336.089 367.884C334.979 366.65 334.297 365.024 334.297 363.236ZM337.456 369.064C340.765 363.917 338.274 358.831 337.446 357.416C338.544 356.693 339.855 356.27 341.264 356.27C342.669 356.27 343.976 356.692 345.072 357.41C341.763 362.556 344.255 367.642 345.082 369.057C343.984 369.78 342.673 370.204 341.264 370.204C339.859 370.204 338.552 369.782 337.456 369.064ZM346.455 367.867C345.687 366.46 344.029 362.568 346.438 358.589C347.549 359.823 348.23 361.45 348.23 363.236C348.23 365.015 347.555 366.635 346.455 367.867Z" fill="white"/>
<path d="M781.553 519.289C755.481 519.289 734.269 540.5 734.269 566.573C734.269 592.645 755.481 613.857 781.553 613.857C807.626 613.857 828.838 592.645 828.838 566.573C828.838 540.5 807.626 519.289 781.553 519.289ZM815.523 594.04C815.49 594.039 815.459 594.031 815.427 594.031H799.599L792.034 581.193L799.443 568.359H814.52L822.425 582.051C820.762 586.424 818.419 590.463 815.523 594.04ZM799.567 597.604H812.304C807.051 602.81 800.485 606.689 793.156 608.709L799.567 597.604ZM763.505 597.604L769.911 608.697C762.598 606.674 756.045 602.8 750.802 597.604H763.505V597.604ZM763.438 594.031H747.645C747.623 594.031 747.603 594.037 747.581 594.037C744.685 590.461 742.343 586.423 740.682 582.051L748.586 568.359H763.594L771.004 581.193L763.438 594.031ZM737.842 566.573C737.842 562.82 738.319 559.175 739.213 555.696L745.493 566.573L739.213 577.45C738.319 573.971 737.842 570.326 737.842 566.573ZM747.582 539.109C747.603 539.11 747.623 539.115 747.645 539.115H763.438L771.005 551.954L763.596 564.786H748.587L740.683 551.096C742.343 546.723 744.685 542.684 747.582 539.109ZM763.505 535.542H750.802C756.047 530.345 762.598 526.472 769.911 524.448L763.505 535.542ZM774.104 579.416L766.689 566.573L774.104 553.731H788.933L796.349 566.573L788.933 579.416H774.104V579.416ZM799.567 535.542L793.156 524.437C800.485 526.458 807.051 530.336 812.304 535.542H799.567ZM799.103 539.115H815.427C815.459 539.115 815.49 539.107 815.523 539.106C818.419 542.681 820.762 546.721 822.425 551.095L814.52 564.785H799.443L792.018 551.924L799.103 539.115ZM817.614 566.573L823.895 555.696C824.789 559.175 825.266 562.819 825.266 566.573C825.266 570.327 824.789 573.971 823.895 577.45L817.614 566.573ZM788.46 523.413C788.487 523.474 788.508 523.535 788.541 523.593L796.234 536.918L788.912 550.158H774.094L766.566 537.386L774.53 523.593C774.562 523.537 774.582 523.478 774.608 523.419C776.871 523.056 779.189 522.862 781.552 522.862C783.903 522.862 786.209 523.054 788.46 523.413ZM774.608 609.726C774.582 609.668 774.563 609.61 774.53 609.553L766.566 595.759L774.094 582.988H788.944L796.488 595.789L788.541 609.553C788.508 609.611 788.487 609.673 788.46 609.732C786.209 610.091 783.903 610.284 781.552 610.284C779.189 610.284 776.871 610.089 774.608 609.726Z" fill="white"/>
<path d="M877.582 302.612H784.418C782.533 302.612 781 304.146 781 306.03V383.97C781 385.854 782.533 387.388 784.418 387.388H877.582C879.467 387.388 881 385.854 881 383.97V306.03C881 304.146 879.467 302.612 877.582 302.612V302.612ZM783.93 335.163H793.346C793.615 335.163 793.834 335.382 793.834 335.651V354.349C793.834 354.618 793.615 354.837 793.346 354.837H783.93V335.163ZM783.93 357.767H793.346C795.23 357.767 796.763 356.234 796.763 354.349V335.651C796.763 333.767 795.23 332.233 793.346 332.233H783.93V326.374H802.135C802.404 326.374 802.623 326.593 802.623 326.862V363.138C802.623 363.407 802.404 363.626 802.135 363.626H783.93V357.767ZM829.535 354.268C825.054 353.563 821.617 349.676 821.617 345C821.617 340.324 825.054 336.437 829.535 335.732V354.268ZM878.07 354.837H868.654C868.385 354.837 868.166 354.618 868.166 354.349V335.651C868.166 335.382 868.385 335.163 868.654 335.163H878.07V354.837ZM878.07 323.444H859.865C857.981 323.444 856.447 324.977 856.447 326.862V332.803C851.934 335.168 849.066 339.854 849.066 345C849.066 350.146 851.934 354.832 856.447 357.197V363.138C856.447 365.022 857.981 366.556 859.865 366.556H873.676C874.485 366.556 875.141 365.9 875.141 365.091C875.141 364.282 874.485 363.626 873.676 363.626H859.865C859.596 363.626 859.377 363.407 859.377 363.138V326.862C859.377 326.593 859.596 326.374 859.865 326.374H878.07V332.233H868.654C866.77 332.233 865.237 333.766 865.237 335.651V354.349C865.237 356.233 866.77 357.767 868.654 357.767H878.07V383.97C878.07 384.239 877.851 384.458 877.582 384.458H832.465V357.223C838.566 356.496 843.313 351.294 843.313 345C843.313 338.706 838.566 333.504 832.465 332.777V323.839C832.465 323.03 831.809 322.374 831 322.374C830.191 322.374 829.535 323.03 829.535 323.839V332.777C823.434 333.504 818.687 338.706 818.687 345C818.687 351.294 823.434 356.496 829.535 357.223V384.458H784.418C784.149 384.458 783.93 384.239 783.93 383.97V366.556H802.135C804.019 366.556 805.553 365.023 805.553 363.138V357.197C810.066 354.832 812.934 350.146 812.934 345C812.934 339.854 810.066 335.168 805.553 332.803V326.862C805.553 324.978 804.019 323.444 802.135 323.444H783.93V306.03C783.93 305.761 784.149 305.542 784.418 305.542H829.535V317.98C829.535 318.789 830.191 319.445 831 319.445C831.809 319.445 832.465 318.789 832.465 317.98V305.542H877.582C877.851 305.542 878.07 305.761 878.07 306.03V323.444ZM856.447 336.243V353.757C853.687 351.743 851.996 348.507 851.996 345C851.996 341.493 853.687 338.257 856.447 336.243V336.243ZM832.465 354.268V335.731C836.946 336.437 840.383 340.324 840.383 345C840.383 349.676 836.946 353.563 832.465 354.268ZM805.553 353.757V336.243C808.312 338.257 810.004 341.493 810.004 345C810.004 348.507 808.312 351.743 805.553 353.757Z" fill="white"/>
<g clip-path="url(#clip3)">
<path d="M944.93 441.153L952.9 444.455C953.665 444.772 954.543 444.408 954.86 443.643C955.177 442.878 954.813 442 954.048 441.683L946.078 438.382C945.313 438.065 944.435 438.429 944.118 439.194C943.801 439.959 944.165 440.837 944.93 441.153Z" fill="#FF8B8B"/>
<path d="M940.267 452.303L958.143 459.707C958.908 460.024 959.786 459.661 960.103 458.896C960.42 458.131 960.056 457.253 959.291 456.936L941.415 449.531C940.65 449.214 939.772 449.578 939.455 450.343C939.139 451.108 939.502 451.986 940.267 452.303Z" fill="#FF8B8B"/>
<path d="M967.121 473.258L936.829 460.711C936.064 460.394 935.186 460.758 934.869 461.523C934.552 462.288 934.916 463.166 935.681 463.483L965.973 476.03C966.738 476.347 967.616 475.983 967.933 475.218C968.25 474.453 967.886 473.575 967.121 473.258Z" fill="#FF8B8B"/>
<path d="M1009.24 464.543L1004.1 462.415L1004.12 430.37C1004.12 429.763 1003.75 429.215 1003.19 428.983C987.489 422.479 989.142 406.066 989.22 405.373C989.281 404.844 989.058 404.324 988.634 404.004C988.209 403.683 987.648 403.611 987.156 403.815L962.258 414.128L954.798 416.935C954.417 417.078 954.11 417.37 953.949 417.744C953.788 418.118 953.785 418.542 953.941 418.917L980.049 481.385C980.202 481.751 980.493 482.041 980.86 482.193L1013.98 495.911C1014.74 496.228 1015.62 495.864 1015.94 495.099L1018.91 487.91C1022.69 478.798 1018.35 468.317 1009.24 464.543ZM986.169 407.471C986.273 412.781 987.972 425.374 1001.12 431.352L1001.11 437.713L993.609 434.604C992.844 434.288 991.966 434.651 991.649 435.416C991.332 436.181 991.695 437.059 992.46 437.376L1000.92 440.881C1000.98 440.907 1001.05 440.921 1001.11 440.938L1001.11 446.213L993.056 442.878C992.291 442.561 991.413 442.925 991.097 443.69C990.78 444.455 991.143 445.333 991.908 445.65L1000.37 449.154C1000.61 449.254 1000.86 449.28 1001.11 449.252L1001.1 454.712L993.163 451.422C992.398 451.105 991.52 451.469 991.203 452.234C990.886 452.999 991.25 453.877 992.015 454.194L1000.48 457.699C1000.68 457.784 1000.89 457.816 1001.1 457.809L1001.1 463.416C1001.1 464.023 1001.46 464.571 1002.03 464.803L1008.09 467.314C1015.2 470.261 1018.82 478.122 1016.65 485.345L988.785 473.763L964.77 416.335L986.169 407.471ZM1013.74 492.565L982.58 479.657L957.31 419.196L961.981 417.439L986.257 475.492C986.409 475.856 986.699 476.146 987.065 476.298L1015.57 488.147L1013.74 492.565Z" fill="#FF8B8B"/>
</g>
<path d="M997.047 577.859H990.484C990.049 577.859 989.632 578.032 989.324 578.34C989.017 578.648 988.844 579.065 988.844 579.5V584.422H992.125V581.141H995.406V583.602L989.5 588.031C989.296 588.184 989.131 588.382 989.017 588.61C988.903 588.838 988.844 589.089 988.844 589.344V592.625C988.844 593.06 989.017 593.477 989.324 593.785C989.632 594.093 990.049 594.266 990.484 594.266H998.688V590.984H992.125V590.164L998.031 585.734C998.235 585.582 998.4 585.383 998.514 585.156C998.628 584.928 998.688 584.677 998.688 584.422V579.5C998.688 579.065 998.515 578.648 998.207 578.34C997.899 578.032 997.482 577.859 997.047 577.859Z" fill="#6A5ACD"/>
<path d="M1010.17 577.859H1003.61C1003.17 577.859 1002.76 578.032 1002.45 578.34C1002.14 578.648 1001.97 579.065 1001.97 579.5V592.625C1001.97 593.06 1002.14 593.477 1002.45 593.785C1002.76 594.093 1003.17 594.266 1003.61 594.266H1010.17C1010.61 594.266 1011.02 594.093 1011.33 593.785C1011.64 593.477 1011.81 593.06 1011.81 592.625V579.5C1011.81 579.065 1011.64 578.648 1011.33 578.34C1011.02 578.032 1010.61 577.859 1010.17 577.859ZM1008.53 590.984H1005.25V581.141H1008.53V590.984Z" fill="#6A5ACD"/>
<path d="M1021.66 571.297H1026.58V574.578H1021.66V571.297Z" fill="#6A5ACD"/>
<path d="M1021.66 577.859H1026.58V581.141H1021.66V577.859Z" fill="#6A5ACD"/>
<path d="M1036.42 571.297H1041.34V574.578H1036.42V571.297Z" fill="#6A5ACD"/>
<path d="M1036.42 577.859H1041.34V581.141H1036.42V577.859Z" fill="#6A5ACD"/>
<path d="M1057.75 579.5C1057.75 579.065 1057.58 578.648 1057.27 578.34C1056.96 578.032 1056.54 577.859 1056.11 577.859H1054.47C1054.2 577.859 1053.93 577.926 1053.69 578.053C1053.46 578.181 1053.25 578.365 1053.1 578.589L1049.82 583.511L1052.55 585.332L1054.47 582.453V590.984H1051.19V594.266H1061.03V590.984H1057.75V579.5Z" fill="#6A5ACD"/>
<path d="M1064.31 579.5V592.625C1064.31 593.06 1064.49 593.477 1064.79 593.785C1065.1 594.093 1065.52 594.266 1065.95 594.266H1072.52C1072.95 594.266 1073.37 594.093 1073.68 593.785C1073.98 593.477 1074.16 593.06 1074.16 592.625V586.062C1074.16 585.627 1073.98 585.21 1073.68 584.902C1073.37 584.595 1072.95 584.422 1072.52 584.422H1067.59V581.141H1074.16V577.859H1065.95C1065.52 577.859 1065.1 578.032 1064.79 578.34C1064.49 578.648 1064.31 579.065 1064.31 579.5ZM1067.59 587.703H1070.88V590.984H1067.59V587.703Z" fill="#6A5ACD"/>
<path d="M1031.5 597.547H1034.78V600.828H1031.5V597.547Z" fill="#6A5ACD"/>
<path d="M1038.06 597.547H1041.34V600.828H1038.06V597.547Z" fill="#6A5ACD"/>
<path d="M1079.08 558.172H1069.23V553.25C1069.23 552.815 1069.06 552.398 1068.75 552.09C1068.45 551.782 1068.03 551.609 1067.59 551.609H1057.75C1057.31 551.609 1056.9 551.782 1056.59 552.09C1056.28 552.398 1056.11 552.815 1056.11 553.25V558.172H1006.89V553.25C1006.89 552.815 1006.72 552.398 1006.41 552.09C1006.1 551.782 1005.69 551.609 1005.25 551.609H995.406C994.971 551.609 994.554 551.782 994.246 552.09C993.938 552.398 993.766 552.815 993.766 553.25V558.172H983.922C983.487 558.172 983.069 558.345 982.762 558.652C982.454 558.96 982.281 559.377 982.281 559.812V605.75C982.281 606.185 982.454 606.602 982.762 606.91C983.069 607.218 983.487 607.391 983.922 607.391H1079.08C1079.51 607.391 1079.93 607.218 1080.24 606.91C1080.55 606.602 1080.72 606.185 1080.72 605.75V559.812C1080.72 559.377 1080.55 558.96 1080.24 558.652C1079.93 558.345 1079.51 558.172 1079.08 558.172ZM1059.39 554.891H1065.95V571.297H1059.39V554.891ZM1006.89 561.453H1056.11V564.734H1006.89V561.453ZM1044.62 568.016V584.422H1033.14V568.016H1044.62ZM1029.86 568.016V584.422H1018.38V568.016H1029.86ZM997.047 554.891H1003.61V571.297H997.047V554.891ZM985.562 561.453H993.766V564.734H985.562V561.453ZM985.562 568.016H993.766V571.297H990.484V574.578H1010.17V571.297H1006.89V568.016H1015.09V597.547H985.562V568.016ZM1077.44 604.109H985.562V600.828H1016.73C1017.17 600.828 1017.59 600.655 1017.89 600.348C1018.2 600.04 1018.38 599.623 1018.38 599.188V587.703H1044.62V599.188C1044.62 599.623 1044.8 600.04 1045.11 600.348C1045.41 600.655 1045.83 600.828 1046.27 600.828H1077.44V604.109ZM1077.44 597.547H1047.91V568.016H1056.11V571.297H1052.83V574.578H1072.52V571.297H1069.23V568.016H1077.44V597.547ZM1077.44 564.734H1069.23V561.453H1077.44V564.734Z" fill="#6A5ACD"/>
<g clip-path="url(#clip4)">
<path d="M649.03 280.426C649.572 280.532 650.097 280.177 650.203 279.635C650.308 279.093 649.954 278.568 649.412 278.463C648.87 278.357 648.345 278.712 648.24 279.254C648.134 279.796 648.488 280.321 649.03 280.426Z" fill="#7AF2FA"/>
<path d="M649.794 276.5C650.336 276.605 650.861 276.251 650.966 275.709C651.071 275.167 650.717 274.642 650.175 274.536C649.633 274.431 649.108 274.785 649.003 275.327C648.897 275.869 649.251 276.394 649.794 276.5Z" fill="#7AF2FA"/>
<path d="M650.557 272.573C651.099 272.678 651.624 272.324 651.729 271.782C651.835 271.24 651.481 270.715 650.938 270.61C650.396 270.504 649.871 270.859 649.766 271.401C649.661 271.943 650.015 272.468 650.557 272.573Z" fill="#7AF2FA"/>
<path d="M651.32 268.647C651.862 268.752 652.387 268.398 652.493 267.856C652.598 267.314 652.244 266.789 651.702 266.683C651.16 266.578 650.635 266.932 650.529 267.474C650.424 268.016 650.778 268.541 651.32 268.647Z" fill="#7AF2FA"/>
<path d="M645.485 277.7C646.028 277.805 646.553 277.451 646.658 276.909C646.763 276.367 646.409 275.842 645.867 275.736C645.325 275.631 644.8 275.985 644.695 276.527C644.589 277.069 644.943 277.594 645.485 277.7Z" fill="#7AF2FA"/>
<path d="M646.249 273.773C646.791 273.878 647.316 273.524 647.421 272.982C647.527 272.44 647.172 271.915 646.63 271.81C646.088 271.704 645.563 272.059 645.458 272.601C645.353 273.143 645.707 273.668 646.249 273.773Z" fill="#7AF2FA"/>
<path d="M641.941 274.973C642.483 275.079 643.008 274.724 643.113 274.182C643.218 273.64 642.864 273.115 642.322 273.01C641.78 272.905 641.255 273.259 641.15 273.801C641.044 274.343 641.398 274.868 641.941 274.973Z" fill="#7AF2FA"/>
<path d="M642.704 271.047C643.246 271.152 643.771 270.798 643.876 270.256C643.982 269.714 643.628 269.189 643.085 269.083C642.543 268.978 642.018 269.332 641.913 269.874C641.808 270.416 642.162 270.941 642.704 271.047Z" fill="#7AF2FA"/>
<path d="M657.647 278.026C658.189 278.131 658.714 277.777 658.819 277.235C658.924 276.693 658.57 276.168 658.028 276.063C657.486 275.957 656.961 276.311 656.856 276.854C656.75 277.396 657.104 277.921 657.647 278.026Z" fill="#7AF2FA"/>
<path d="M658.41 274.1C658.952 274.205 659.477 273.851 659.582 273.309C659.688 272.767 659.334 272.242 658.791 272.136C658.249 272.031 657.724 272.385 657.619 272.927C657.514 273.469 657.868 273.994 658.41 274.1Z" fill="#7AF2FA"/>
<path d="M647.012 269.847C647.554 269.952 648.079 269.598 648.184 269.056C648.29 268.514 647.936 267.989 647.394 267.883C646.851 267.778 646.327 268.132 646.221 268.674C646.116 269.216 646.47 269.741 647.012 269.847Z" fill="#7AF2FA"/>
<path d="M653.338 279.226C653.881 279.331 654.406 278.977 654.511 278.435C654.616 277.893 654.262 277.368 653.72 277.263C653.178 277.157 652.653 277.512 652.548 278.054C652.442 278.596 652.796 279.121 653.338 279.226Z" fill="#7AF2FA"/>
<path d="M654.102 275.3C654.644 275.405 655.169 275.051 655.274 274.509C655.38 273.967 655.025 273.442 654.483 273.336C653.941 273.231 653.416 273.585 653.311 274.127C653.206 274.669 653.56 275.194 654.102 275.3Z" fill="#7AF2FA"/>
<path d="M654.865 271.373C655.407 271.478 655.932 271.124 656.037 270.582C656.143 270.04 655.789 269.515 655.247 269.41C654.704 269.304 654.18 269.659 654.074 270.201C653.969 270.743 654.323 271.268 654.865 271.373Z" fill="#7AF2FA"/>
<path d="M643.473 294.173L644.864 297.5C644.993 297.808 645.268 298.032 645.596 298.096C645.924 298.159 646.262 298.055 646.497 297.817L649.033 295.254C649.172 295.113 649.266 294.935 649.304 294.741L650.392 289.146L654.802 284.688C659.753 282.72 662.813 277.724 662.318 272.42C661.822 267.116 657.889 262.773 652.659 261.757C647.43 260.74 642.156 263.293 639.71 268.025C637.263 272.758 638.23 278.536 642.082 282.215L644.502 288.001L643.414 293.596C643.377 293.79 643.397 293.991 643.473 294.173ZM647.398 294.065L646.13 295.347L645.435 293.684L646.331 289.07L648.295 289.452L647.398 294.065ZM640.55 271.647C641.604 266.225 646.853 262.685 652.274 263.738C657.696 264.792 661.236 270.041 660.182 275.463C659.129 280.884 653.879 284.425 648.458 283.371C643.04 282.312 639.502 277.067 640.55 271.647ZM648.076 285.334C649.096 285.529 650.137 285.589 651.173 285.514L649.133 287.577L646.257 287.018L645.138 284.341C646.07 284.799 647.058 285.132 648.076 285.334V285.334Z" fill="#7AF2FA"/>
<path d="M636.654 256.706C633.034 261.922 632.135 269.385 634.468 274.856C634.684 275.365 635.272 275.601 635.781 275.384C636.289 275.168 636.526 274.58 636.309 274.071C634.23 269.196 635.047 262.529 638.296 257.848C641.337 253.702 647.031 252.547 651.447 255.18L672.019 268.581C672.783 269.079 673.732 269.202 674.598 268.915C675.464 268.629 676.153 267.964 676.47 267.109L678.165 262.526C678.51 261.624 679.218 260.908 680.116 260.551C681.014 260.195 682.02 260.23 682.89 260.649C683.737 261.063 684.381 261.801 684.676 262.696C684.97 263.591 684.891 264.568 684.455 265.403L680.541 275.543C677.882 282.409 670.067 284.779 664.178 284.722C662.691 284.715 661.14 284.627 659.578 284.467C659.221 284.427 658.87 284.582 658.659 284.872C658.448 285.163 658.408 285.544 658.556 285.872C658.703 286.199 659.015 286.422 659.373 286.456C661.003 286.624 662.615 286.714 664.162 286.722C670.683 286.784 679.375 284.083 682.402 276.263L686.284 266.204C687.011 264.752 687.037 263.047 686.355 261.573L690.466 250.41C691.192 248.35 690.13 246.089 688.08 245.334C686.03 244.579 683.754 245.61 682.971 247.649L678.776 259.008C677.68 259.64 676.817 260.609 676.315 261.769L674.596 266.417C674.49 266.702 674.261 266.923 673.973 267.018C673.684 267.114 673.368 267.073 673.113 266.907L652.537 253.501C647.222 250.236 640.287 251.635 636.654 256.706V256.706ZM684.847 248.342C685.24 247.326 686.375 246.812 687.397 247.189C688.419 247.565 688.95 248.692 688.589 249.72L684.929 259.643C684.574 259.329 684.181 259.063 683.758 258.851C682.947 258.459 682.05 258.277 681.151 258.324L684.847 248.342Z" fill="#7AF2FA"/>
<path d="M647.549 257.854C648.16 257.967 648.742 258.198 649.265 258.533C649.565 258.742 649.955 258.771 650.282 258.608C650.609 258.446 650.822 258.118 650.837 257.753C650.851 257.387 650.665 257.043 650.352 256.855C649.614 256.38 648.791 256.052 647.929 255.89C644.89 255.308 641.786 256.512 639.934 258.991C639.618 259.444 639.73 260.068 640.183 260.384C640.636 260.7 641.26 260.588 641.576 260.135C642.977 258.308 645.287 257.426 647.549 257.854V257.854Z" fill="#7AF2FA"/>
<path d="M664.182 282.722C669.436 282.773 676.385 280.734 678.672 274.82C678.871 274.305 678.615 273.726 678.1 273.526C677.585 273.327 677.006 273.583 676.806 274.098C674.886 279.059 668.816 280.767 664.202 280.722C663.844 280.719 663.512 280.906 663.331 281.214C663.149 281.521 663.145 281.902 663.321 282.214C663.496 282.525 663.824 282.719 664.182 282.722Z" fill="#7AF2FA"/>
<path d="M664.128 244.682C663.925 244.511 663.663 244.428 663.398 244.451C663.134 244.474 662.89 244.601 662.719 244.804L656.094 252.684C655.738 253.107 655.792 253.738 656.215 254.093C656.638 254.449 657.268 254.394 657.624 253.972L664.249 246.091C664.42 245.888 664.503 245.626 664.481 245.362C664.458 245.097 664.331 244.853 664.128 244.682V244.682Z" fill="#7AF2FA"/>
<path d="M672.507 244.369C672.304 244.198 672.041 244.115 671.777 244.138C671.513 244.161 671.268 244.288 671.098 244.491L661.597 255.791C661.241 256.214 661.296 256.845 661.718 257.2C662.141 257.556 662.772 257.502 663.127 257.079L672.628 245.778C672.799 245.575 672.882 245.313 672.859 245.049C672.836 244.784 672.71 244.54 672.507 244.369V244.369Z" fill="#7AF2FA"/>
<path d="M667.226 260.308C667.429 260.479 667.692 260.562 667.956 260.54C668.22 260.517 668.465 260.39 668.635 260.187L673.261 254.685C673.603 254.261 673.543 253.642 673.126 253.291C672.71 252.941 672.089 252.988 671.731 253.398L667.105 258.899C666.934 259.102 666.851 259.365 666.874 259.629C666.897 259.893 667.023 260.138 667.226 260.308V260.308Z" fill="#7AF2FA"/>
</g>
<path d="M305.85 473.859C284.033 452.044 256.112 456.341 245.122 459.202C241.6 460.118 238.839 462.874 237.914 466.395C235.017 477.421 230.637 505.424 252.461 527.25C266.018 540.806 281.932 544.28 294.678 544.278C302.441 544.278 309.029 542.99 313.189 541.908C316.711 540.991 319.472 538.236 320.397 534.715C323.294 523.687 327.674 495.684 305.85 473.859ZM241.369 467.301C241.966 465.03 243.749 463.251 246.02 462.66C249.971 461.632 256.231 460.405 263.603 460.405C263.645 460.405 263.69 460.407 263.732 460.407L239.067 485.074C239.073 477.626 240.322 471.289 241.369 467.301ZM254.988 524.722C243.977 513.712 240.079 500.988 239.248 489.946L268.592 460.602C279.609 461.457 292.313 465.375 303.323 476.385C314.334 487.395 318.232 500.119 319.063 511.162L289.72 540.505C278.702 539.651 265.998 535.732 254.988 524.722ZM316.942 533.807C316.345 536.078 314.562 537.856 312.29 538.447C308.318 539.481 302.005 540.71 294.581 540.697L319.243 516.034C319.238 523.483 317.989 529.819 316.942 533.807Z" fill="white"/>
<path d="M298.308 505.358C297.61 504.66 296.48 504.66 295.782 505.358L291.132 510.008L285.731 504.607L290.46 499.879C291.158 499.182 291.158 498.05 290.46 497.352C289.762 496.654 288.632 496.654 287.934 497.352L283.205 502.081L277.805 496.681L282.532 491.952C283.23 491.254 283.23 490.122 282.532 489.426C281.834 488.728 280.704 488.728 280.006 489.426L275.279 494.154L269.878 488.754L274.607 484.027C275.305 483.33 275.305 482.198 274.607 481.5C273.909 480.802 272.779 480.802 272.081 481.5L267.352 486.228L263.157 482.033C262.459 481.335 261.329 481.335 260.631 482.033C259.933 482.729 259.933 483.862 260.631 484.559L264.826 488.754L260.256 493.324C259.558 494.021 259.558 495.152 260.256 495.85C260.605 496.199 261.062 496.373 261.519 496.373C261.977 496.373 262.434 496.199 262.783 495.85L267.353 491.28L272.754 496.681L268.183 501.251C267.485 501.949 267.485 503.08 268.183 503.777C268.532 504.126 268.99 504.3 269.447 504.3C269.904 504.3 270.362 504.126 270.711 503.777L275.281 499.207L280.681 504.607L276.111 509.177C275.413 509.875 275.413 511.006 276.111 511.704C276.46 512.053 276.917 512.227 277.375 512.227C277.832 512.227 278.29 512.053 278.639 511.704L283.209 507.133L288.609 512.534L283.959 517.184C283.261 517.882 283.261 519.012 283.959 519.71C284.308 520.059 284.765 520.233 285.223 520.233C285.68 520.233 286.138 520.059 286.487 519.71L291.136 515.06L295.721 519.645C296.07 519.994 296.527 520.167 296.985 520.167C297.442 520.167 297.899 519.994 298.248 519.645C298.946 518.947 298.946 517.816 298.248 517.118L293.664 512.534L298.314 507.884C299.006 507.186 299.006 506.054 298.308 505.358Z" fill="white"/>
<g clip-path="url(#clip5)">
<path d="M157.054 218.404C157.119 218.424 157.186 218.437 157.253 218.442C157.508 218.465 157.765 218.386 157.966 218.218L161.18 215.52C162.761 214.194 162.967 211.83 161.641 210.249C160.999 209.484 160.097 209.014 159.101 208.927C159.044 208.922 158.987 208.918 158.929 208.916C158.937 208.859 158.943 208.802 158.948 208.744C159.035 207.749 158.729 206.779 158.087 206.014C156.761 204.433 154.397 204.226 152.816 205.552L149.602 208.25C149.349 208.462 149.22 208.788 149.26 209.115L149.65 212.334L149.285 212.64C145.601 209.362 140.907 207.332 135.975 206.9C129.843 206.364 123.869 208.247 119.153 212.204C114.438 216.161 111.545 221.717 111.009 227.85C110.472 233.982 112.356 239.956 116.313 244.672C120.27 249.387 125.826 252.28 131.958 252.816C138.091 253.353 144.065 251.469 148.78 247.512C153.496 243.555 156.388 237.999 156.925 231.867C157.356 226.936 156.173 221.964 153.586 217.768L153.952 217.461L157.054 218.404ZM143.776 223.45L141.985 221.315L149.93 214.649L150.054 215.668C150.1 216.052 150.369 216.372 150.739 216.485L151.721 216.783L143.776 223.45ZM142.527 230.607C142.115 235.327 137.938 238.832 133.218 238.419C128.498 238.006 124.993 233.83 125.406 229.109C125.819 224.389 129.995 220.885 134.716 221.298C135.826 221.395 136.901 221.706 137.883 222.208L136.187 223.631C135.988 223.798 135.864 224.037 135.842 224.296L135.702 225.928C135.281 225.742 134.824 225.62 134.341 225.578C131.981 225.371 129.893 227.123 129.687 229.484C129.48 231.844 131.232 233.932 133.592 234.139C135.953 234.345 138.041 232.593 138.247 230.233C138.289 229.751 138.249 229.282 138.139 228.836L139.774 228.982L139.776 228.983C140.034 229.005 140.29 228.924 140.489 228.758L142.183 227.336C142.505 228.388 142.624 229.499 142.527 230.607V230.607ZM139.544 227.001L137.585 226.826L137.753 224.866L140.489 222.571L142.28 224.705L139.544 227.001ZM136.302 230.062C136.189 231.35 135.05 232.306 133.763 232.193C132.475 232.08 131.519 230.941 131.632 229.654C131.745 228.367 132.884 227.411 134.171 227.523C134.458 227.549 134.728 227.625 134.974 227.742L133.755 228.765C133.342 229.111 133.288 229.727 133.635 230.14C133.808 230.347 134.049 230.464 134.298 230.486C134.547 230.507 134.804 230.434 135.011 230.261L136.227 229.24C136.299 229.501 136.326 229.778 136.302 230.062ZM158.931 210.873C159.407 210.914 159.838 211.139 160.145 211.505C160.779 212.26 160.68 213.39 159.925 214.024L157.116 216.381L153.031 215.14L157.625 211.285C157.626 211.284 157.626 211.284 157.626 211.284C157.992 210.977 158.456 210.831 158.931 210.873V210.873ZM154.072 207.049C154.827 206.415 155.957 206.514 156.591 207.269C156.898 207.635 157.044 208.098 157.003 208.574C156.961 209.05 156.737 209.481 156.371 209.788C156.37 209.788 156.37 209.788 156.37 209.789L151.776 213.644L151.263 209.406L154.072 207.049ZM154.979 231.697C153.966 243.283 143.715 251.884 132.128 250.871C120.542 249.857 111.941 239.606 112.954 228.02C113.968 216.433 124.219 207.832 135.805 208.846C140.292 209.238 144.407 210.984 147.772 213.909L144.428 216.716C141.846 214.654 138.752 213.417 135.431 213.126C126.205 212.319 118.042 219.168 117.235 228.394C116.986 231.237 117.466 234.109 118.624 236.699C118.773 237.034 119.089 237.243 119.431 237.273C119.591 237.287 119.757 237.262 119.914 237.192C120.406 236.972 120.627 236.394 120.407 235.902C119.385 233.614 118.96 231.077 119.18 228.565C119.894 220.411 127.107 214.358 135.261 215.072C138.063 215.317 140.681 216.324 142.898 218L139.481 220.867C138.094 220.016 136.521 219.495 134.886 219.352C129.093 218.845 123.967 223.146 123.461 228.939C122.954 234.732 127.254 239.858 133.048 240.364C138.841 240.871 143.966 236.57 144.473 230.777C144.616 229.146 144.377 227.507 143.782 225.995L147.199 223.127C148.462 225.6 148.998 228.351 148.753 231.152C148.04 239.305 140.827 245.358 132.673 244.645C130.16 244.425 127.734 243.566 125.658 242.161C125.212 241.859 124.605 241.976 124.302 242.423C124 242.87 124.117 243.477 124.564 243.779C126.914 245.369 129.659 246.342 132.503 246.59C141.729 247.398 149.892 240.548 150.699 231.322C150.989 228.002 150.309 224.743 148.729 221.844L152.073 219.038C154.336 222.826 155.366 227.279 154.979 231.697V231.697Z" fill="#6E407E"/>
<path d="M121.934 239.054C121.677 239.031 121.418 239.114 121.221 239.279C121.024 239.444 120.898 239.686 120.876 239.942C120.853 240.198 120.936 240.458 121.101 240.654C121.266 240.851 121.507 240.977 121.763 241C122.019 241.022 122.279 240.94 122.476 240.775C122.673 240.61 122.799 240.368 122.821 240.112C122.844 239.856 122.762 239.596 122.597 239.399C122.431 239.202 122.19 239.076 121.934 239.054Z" fill="#6E407E"/>
</g>
<path d="M1101.73 56.5014C1097.37 55.7647 1093.17 54.6125 1089.12 53.009C1089.64 52.1041 1090.17 51.1993 1090.69 50.2944C1082.49 44.8141 1073.58 41.4213 1064.01 39.8212C1061.13 46.9405 1058.25 54.0596 1055.37 61.1789C1059.73 61.9154 1063.94 63.0673 1067.98 64.671C1067.46 65.5759 1066.94 66.481 1066.41 67.3858C1074.61 72.8662 1083.53 76.2591 1093.1 77.8592C1095.97 70.74 1098.85 63.6207 1101.73 56.5014ZM1087.77 51.0893C1086.81 52.7941 1085.85 54.4988 1084.89 56.2036C1083.37 55.261 1081.84 54.3766 1080.27 53.5388C1081.19 51.8077 1082.1 50.0764 1083.02 48.3455C1084.63 49.208 1086.21 50.1185 1087.77 51.0893ZM1077.02 45.6266C1076.17 47.3838 1075.31 49.141 1074.45 50.8985C1072.47 50.1222 1070.45 49.4757 1068.41 48.8845C1069.21 47.1072 1070.01 45.33 1070.81 43.5529C1072.91 44.1623 1074.97 44.8501 1077.02 45.6266ZM1060.42 54.0595C1061.31 51.9224 1062.2 49.7856 1063.1 47.649C1064.87 48.0036 1066.62 48.41 1068.37 48.8735C1067.42 50.9958 1066.47 53.1179 1065.51 55.2404C1063.82 54.7929 1062.13 54.4012 1060.42 54.0595ZM1063.15 60.5826C1063.95 58.8055 1064.75 57.0281 1065.55 55.251C1067.52 55.7987 1069.46 56.4461 1071.37 57.1938C1070.51 58.951 1069.66 60.7084 1068.8 62.4657C1066.95 61.7404 1065.06 61.1131 1063.15 60.5826ZM1071.41 57.2079C1072.44 55.11 1073.46 53.0115 1074.49 50.9134C1076.44 51.6805 1078.36 52.5498 1080.23 53.5198C1079.14 55.5873 1078.05 57.6546 1076.95 59.7221C1075.15 58.786 1073.29 57.9481 1071.41 57.2079ZM1074.09 69.3348C1072.47 68.4721 1070.89 67.5618 1069.33 66.5911C1069.54 66.2247 1069.74 65.858 1069.95 65.4917C1071.86 66.33 1074.77 68.0363 1074.77 68.0363C1074.54 68.4691 1074.32 68.9019 1074.09 69.3348ZM1074.24 64.9337C1075.16 63.2027 1076.07 61.4717 1076.99 59.7404C1078.51 60.528 1079.99 61.3851 1081.44 62.3103C1080.48 64.0156 1079.52 65.7197 1078.56 67.4247C1077.15 66.5281 1075.71 65.6973 1074.24 64.9337ZM1096.68 63.6211C1095.79 65.7578 1094.9 67.8946 1094.01 70.0314C1092.23 69.6766 1090.48 69.2705 1088.73 68.8068C1089.68 66.6847 1090.64 64.5623 1091.59 62.4401C1093.28 62.8874 1094.97 63.2791 1096.68 63.6211ZM1093.95 57.0977C1093.15 58.8749 1092.35 60.6521 1091.55 62.4291C1089.58 61.8817 1087.64 61.2342 1085.73 60.4865C1086.59 58.7292 1087.45 56.972 1088.31 55.2148C1090.16 55.9387 1092.04 56.5669 1093.95 57.0977ZM1081.44 66.2897C1082.62 64.2538 1083.8 62.2178 1084.97 60.182C1085.21 60.2798 1085.45 60.3778 1085.69 60.4724C1084.67 62.5701 1083.64 64.6685 1082.62 66.7668C1082.22 66.6126 1081.83 66.4526 1081.44 66.2897ZM1080.08 72.0539C1080.94 70.2965 1081.8 68.5395 1082.66 66.7819C1084.64 67.558 1086.65 68.2044 1088.69 68.7957C1087.89 70.5731 1087.09 72.3501 1086.29 74.1273C1084.19 73.5179 1082.13 72.8301 1080.08 72.0539Z" fill="white"/>
<path d="M1059.59 38.3266C1059.52 38.5549 1051.79 61.3129 1043.46 75.6401L1046.21 77.2404C1054.71 62.633 1062.53 39.5757 1062.61 39.3445L1059.59 38.3266Z" fill="white"/>
<path d="M508.34 594.607C513.834 588.931 517.225 581.207 517.225 572.702C517.225 564.23 513.859 556.534 508.402 550.864C508.365 550.815 508.344 550.758 508.299 550.714C508.268 550.685 508.228 550.674 508.196 550.648C502.472 544.81 494.504 541.179 485.701 541.179C468.32 541.179 454.179 555.321 454.179 572.702C454.179 581.083 457.472 588.703 462.824 594.355C462.882 594.533 462.969 594.702 463.112 594.842C463.24 594.966 463.391 595.048 463.549 595.104C469.246 600.738 477.073 604.225 485.701 604.225C494.522 604.225 502.503 600.578 508.231 594.719C508.248 594.704 508.269 594.699 508.285 594.684C508.31 594.662 508.318 594.631 508.34 594.607ZM456.592 573.893H471.297C471.06 580.674 468.511 587.076 464.022 592.148C459.635 587.263 456.875 580.893 456.592 573.893ZM514.813 571.511H500.112C500.384 564.755 502.958 558.384 507.453 553.339C511.798 558.213 514.531 564.551 514.813 571.511ZM497.73 571.511H486.844V543.591C494.177 543.875 500.819 546.881 505.794 551.626C500.835 557.129 498.005 564.107 497.73 571.511ZM484.461 571.511H473.672C473.361 564.184 470.521 557.21 465.59 551.746C465.573 551.728 465.553 551.714 465.536 551.697C470.497 546.932 477.131 543.901 484.462 543.593V571.511H484.461ZM473.679 573.893H484.462V601.812C477.207 601.506 470.634 598.534 465.689 593.854C470.635 588.325 473.439 581.318 473.679 573.893ZM486.843 573.893H497.729C498.003 581.298 500.833 588.278 505.791 593.782C500.816 598.525 494.175 601.53 486.843 601.814V573.893V573.893ZM500.112 573.893H514.813C514.531 580.855 511.797 587.194 507.451 592.07C502.954 587.024 500.382 580.651 500.112 573.893ZM463.884 553.416C468.379 558.43 470.982 564.807 471.29 571.511H456.592C456.872 564.587 459.579 558.28 463.884 553.416Z" fill="#FA8072"/>
<path d="M787.946 120.27H757.916V117.568H786.595V55.4054H697.405V62.1622H694.703V54.054C694.703 53.6956 694.845 53.3519 695.099 53.0985C695.352 52.8451 695.696 52.7027 696.054 52.7027H787.946C788.304 52.7027 788.648 52.8451 788.901 53.0985C789.155 53.3519 789.297 53.6956 789.297 54.054V118.919C789.297 119.277 789.155 119.621 788.901 119.874C788.648 120.128 788.304 120.27 787.946 120.27Z" fill="#6A5ACD"/>
<path d="M726.084 120.27H696.054C695.696 120.27 695.352 120.128 695.099 119.874C694.845 119.621 694.703 119.277 694.703 118.919V67.5676H697.405V117.568H726.084V120.27Z" fill="#6A5ACD"/>
<path d="M779.838 112.162H764.736V109.459H778.486V63.5136H705.514V109.459H719.264V112.162H704.162C703.804 112.162 703.46 112.02 703.207 111.766C702.953 111.513 702.811 111.169 702.811 110.811V62.1622C702.811 61.8038 702.953 61.4601 703.207 61.2067C703.46 60.9532 703.804 60.8109 704.162 60.8109H779.838C780.196 60.8109 780.54 60.9532 780.793 61.2067C781.047 61.4601 781.189 61.8038 781.189 62.1622V110.811C781.189 111.169 781.047 111.513 780.793 111.766C780.54 112.02 780.196 112.162 779.838 112.162Z" fill="#6A5ACD"/>
<path d="M760.919 114.865H723.081C721.647 114.865 720.273 114.295 719.259 113.282C718.245 112.268 717.676 110.893 717.676 109.459C717.676 108.026 718.245 106.651 719.259 105.637C720.273 104.624 721.647 104.054 723.081 104.054H728.486V106.757H723.081C722.364 106.757 721.677 107.042 721.17 107.548C720.663 108.055 720.378 108.743 720.378 109.459C720.378 110.176 720.663 110.864 721.17 111.371C721.677 111.877 722.364 112.162 723.081 112.162H760.919C761.636 112.162 762.323 111.877 762.83 111.371C763.337 110.864 763.622 110.176 763.622 109.459C763.622 108.743 763.337 108.055 762.83 107.548C762.323 107.042 761.636 106.757 760.919 106.757H733.892V104.054H760.919C762.353 104.054 763.727 104.624 764.741 105.637C765.755 106.651 766.324 108.026 766.324 109.459C766.324 110.893 765.755 112.268 764.741 113.282C763.727 114.295 762.353 114.865 760.919 114.865Z" fill="#6A5ACD"/>
<path d="M755.514 145.946H752.811V125.676C752.811 125.446 752.869 125.22 752.981 125.019L759.738 112.857L762.1 114.17L755.514 126.026V145.946Z" fill="#6A5ACD"/>
<path d="M731.189 145.946H728.486V126.026L721.9 114.17L724.262 112.857L731.019 125.019C731.131 125.22 731.189 125.446 731.189 125.676V145.946Z" fill="#6A5ACD"/>
<path d="M747.405 145.946H744.703V122.973C744.702 122.736 744.763 122.503 744.881 122.297L750.286 112.838L752.632 114.178L747.405 123.332V145.946Z" fill="#6A5ACD"/>
<path d="M739.297 145.946H736.595V123.332L731.368 114.189L733.714 112.849L739.119 122.308C739.235 122.511 739.296 122.74 739.297 122.973V145.946Z" fill="#6A5ACD"/>
<path d="M727.585 120.27H756.414V122.973H727.585V120.27Z" fill="#6A5ACD"/>
<path d="M729.838 129.73H754.162V132.432H729.838V129.73Z" fill="#6A5ACD"/>
<path d="M729.838 139.189H754.162V141.892H729.838V139.189Z" fill="#6A5ACD"/>
<path d="M1095.28 249.717C1079.74 234.182 1054.57 234.068 1038.9 249.534C1038.44 249.988 1038.44 250.73 1038.89 251.191C1039.35 251.651 1040.09 251.656 1040.55 251.201C1047.24 244.597 1055.97 240.796 1065.3 240.386C1065.25 241.575 1065.14 242.754 1064.98 243.921L1062.3 245.47C1061.74 245.793 1061.54 246.51 1061.87 247.07C1062.19 247.63 1062.91 247.822 1063.47 247.499L1064.44 246.941C1063.85 249.571 1062.98 252.119 1061.86 254.549L1058.84 255.358C1058.21 255.526 1057.84 256.168 1058.01 256.793C1058.18 257.418 1058.82 257.789 1059.44 257.622L1060.4 257.365C1059.08 259.675 1057.51 261.853 1055.69 263.866H1052.55C1051.9 263.866 1051.37 264.391 1051.37 265.038C1051.37 265.685 1051.9 266.209 1052.55 266.209H1053.39C1051.56 267.921 1049.59 269.43 1047.5 270.727L1044.44 269.908C1043.82 269.74 1043.17 270.111 1043.01 270.737C1042.84 271.362 1043.21 272.004 1043.83 272.172L1044.56 272.367C1042.29 273.508 1039.91 274.413 1037.44 275.069L1034.67 273.484C1034.11 273.162 1033.4 273.357 1033.07 273.918C1032.75 274.48 1032.95 275.196 1033.51 275.517L1034.02 275.811C1032.5 276.068 1030.95 276.233 1029.38 276.302C1029.73 268.687 1032.36 261.333 1036.99 255.243C1037.39 254.728 1037.29 253.993 1036.77 253.601C1036.26 253.209 1035.52 253.309 1035.13 253.824C1023.16 269.557 1024.46 292.019 1038.72 306.278C1050.82 318.381 1069.41 321.521 1084.89 313.776C1085.47 313.486 1085.71 312.782 1085.42 312.204C1085.13 311.625 1084.42 311.39 1083.84 311.68C1079.08 314.064 1073.94 315.39 1068.69 315.618C1068.74 314.426 1068.85 313.244 1069.01 312.074L1071.7 310.525C1072.26 310.202 1072.45 309.485 1072.12 308.925C1071.8 308.364 1071.08 308.172 1070.52 308.496L1069.56 309.054C1070.14 306.424 1071.01 303.876 1072.14 301.446L1075.16 300.637C1075.78 300.469 1076.15 299.827 1075.98 299.202C1075.82 298.577 1075.17 298.206 1074.55 298.373L1073.59 298.63C1074.91 296.32 1076.49 294.142 1078.3 292.129H1081.45C1082.1 292.129 1082.62 291.604 1082.62 290.957C1082.62 290.31 1082.1 289.786 1081.45 289.786H1080.6C1082.43 288.074 1084.41 286.565 1086.5 285.268L1089.55 286.087C1090.18 286.255 1090.82 285.882 1090.99 285.258C1091.16 284.633 1090.78 283.991 1090.16 283.823L1089.43 283.628C1091.7 282.487 1094.09 281.582 1096.55 280.926L1099.32 282.511C1099.88 282.834 1100.6 282.637 1100.92 282.077C1101.24 281.515 1101.05 280.799 1100.48 280.478L1099.97 280.184C1101.5 279.927 1103.04 279.762 1104.61 279.693C1104.07 291.848 1097.82 302.439 1088.44 308.954C1087.91 309.323 1087.78 310.053 1088.14 310.585C1088.52 311.118 1089.25 311.247 1089.78 310.879C1110.3 296.626 1112.91 267.349 1095.28 249.717V249.717ZM1099.05 277.964L1099.56 277.074C1099.88 276.512 1099.69 275.796 1099.12 275.475C1098.56 275.153 1097.85 275.348 1097.52 275.909L1095.95 278.66C1093.25 279.378 1090.64 280.375 1088.16 281.639L1088.4 280.769C1088.56 280.144 1088.19 279.501 1087.57 279.334C1086.94 279.166 1086.3 279.537 1086.13 280.162L1085.3 283.25C1083.05 284.644 1080.92 286.271 1078.95 288.119V287.291C1078.95 286.644 1078.43 286.119 1077.78 286.119C1077.13 286.119 1076.61 286.644 1076.61 287.291V290.503C1074.71 292.599 1073.06 294.867 1071.67 297.269L1071.49 296.609C1071.33 295.984 1070.68 295.613 1070.06 295.781C1069.43 295.948 1069.06 296.591 1069.23 297.216L1070.07 300.337C1068.91 302.802 1068.01 305.382 1067.38 308.044L1067.12 307.583C1066.79 307.022 1066.08 306.83 1065.52 307.154C1064.96 307.478 1064.76 308.194 1065.09 308.755L1066.72 311.578C1066.53 312.92 1066.4 314.278 1066.34 315.648C1045.98 315.265 1029.7 298.876 1029.35 278.649C1031.24 278.572 1033.11 278.366 1034.94 278.031L1034.43 278.921C1034.11 279.483 1034.31 280.199 1034.87 280.52C1035.43 280.843 1036.15 280.646 1036.47 280.086L1038.04 277.335C1040.74 276.617 1043.35 275.62 1045.83 274.356L1045.6 275.226C1045.43 275.852 1045.8 276.494 1046.43 276.662C1047.05 276.83 1047.69 276.455 1047.86 275.833L1048.69 272.745C1050.94 271.351 1053.07 269.724 1055.04 267.876V268.704C1055.04 269.351 1055.56 269.876 1056.21 269.876C1056.86 269.876 1057.38 269.351 1057.38 268.704V265.492C1059.28 263.396 1060.93 261.128 1062.32 258.726L1062.5 259.386C1062.67 260.011 1063.31 260.381 1063.93 260.214C1064.56 260.047 1064.93 259.404 1064.76 258.779L1063.93 255.658C1065.08 253.193 1065.98 250.613 1066.61 247.951L1066.88 248.412C1067.2 248.975 1067.92 249.163 1068.48 248.841C1069.04 248.517 1069.23 247.801 1068.91 247.24L1067.28 244.417C1067.47 243.078 1067.59 241.723 1067.65 240.355C1087.93 240.699 1104.3 257.039 1104.64 277.346C1102.75 277.423 1100.88 277.63 1099.05 277.964V277.964ZM1055.05 283.614C1054.59 283.156 1053.85 283.156 1053.39 283.614C1052.93 284.071 1052.93 284.813 1053.39 285.271L1054.93 286.814C1055.39 287.271 1056.13 287.271 1056.59 286.814C1057.05 286.356 1057.05 285.614 1056.59 285.157L1055.05 283.614ZM1063.76 274.765C1062.51 276.023 1059.89 278.641 1062.78 281.53C1065.07 283.819 1068.7 284.084 1070.89 281.893C1073.03 279.756 1072.87 276.115 1070.53 273.778C1067.64 270.889 1065.02 273.507 1063.76 274.765V274.765ZM1069.23 280.236C1068.66 280.811 1067.86 281.101 1066.98 281.05C1066.04 280.998 1065.14 280.58 1064.43 279.873C1063.66 279.098 1063.8 278.668 1063.88 278.437C1064.08 277.825 1064.74 277.107 1065.42 276.422C1065.94 275.904 1067.03 274.815 1067.76 274.815C1068.01 274.815 1068.37 274.933 1068.87 275.435C1070.3 276.859 1070.46 279.012 1069.23 280.236V280.236ZM1074.27 264.389C1073.81 263.931 1073.07 263.931 1072.61 264.389C1072.16 264.847 1072.16 265.588 1072.61 266.046L1074.16 267.589C1074.61 268.047 1075.36 268.047 1075.81 267.589C1076.27 267.132 1076.27 266.39 1075.81 265.932L1074.27 264.389Z" fill="white"/>
<path d="M541.87 122.56C540.623 120.278 539.355 117.976 538.082 115.676C538.04 115.549 537.975 115.431 537.891 115.33C536.163 112.209 534.428 109.094 532.726 106.037C530.411 101.882 528.018 97.5852 525.69 93.3584C525.504 93.0199 525.148 92.8098 524.762 92.8098H512.348L512.347 90.619C512.347 90.0338 511.873 89.5594 511.287 89.5594H510.56V87.0441H515.613C516.198 87.0441 516.673 86.5695 516.673 85.9842V75.8953C516.673 75.31 516.198 74.8354 515.613 74.8354C515.028 74.8354 514.553 75.31 514.553 75.8953V84.9245H504.447V75.8953C504.447 75.31 503.972 74.8354 503.387 74.8354C502.802 74.8354 502.327 75.31 502.327 75.8953V85.9844C502.327 86.5696 502.802 87.0442 503.387 87.0442H508.44V89.5596H507.71C507.429 89.5596 507.16 89.6713 506.961 89.87C506.762 90.0688 506.65 90.3384 506.65 90.6197L506.651 92.8098H494.239C493.858 92.8098 493.507 93.0135 493.318 93.3438C492.184 95.3283 491.069 97.3429 489.991 99.2913C488.916 101.233 487.804 103.242 486.677 105.214C486.661 105.242 486.646 105.271 486.633 105.301C486.296 106.042 485.928 106.711 485.538 107.419C485.155 108.117 484.758 108.838 484.394 109.633C481.54 114.548 479.23 118.66 477.126 122.569C477.126 122.569 477.125 122.57 477.125 122.57C477.125 122.57 477.125 122.57 477.125 122.57C477.125 122.571 477.125 122.571 477.124 122.571C477.124 122.572 477.124 122.572 477.124 122.572C477.124 122.572 477.124 122.573 477.124 122.573C477.124 122.573 477.123 122.574 477.123 122.574C477.087 122.643 477.058 122.715 477.038 122.788C477.038 122.789 477.038 122.79 477.037 122.79C477.037 122.79 477.037 122.79 477.037 122.79C477.037 122.791 477.037 122.792 477.037 122.792C477.037 122.792 477.037 122.792 477.037 122.793C477.037 122.793 477.037 122.794 477.037 122.794C477.037 122.794 477.036 122.795 477.036 122.795C477.036 122.795 477.036 122.796 477.036 122.796C477.036 122.796 477.036 122.797 477.036 122.797C477.036 122.797 477.036 122.798 477.036 122.798C477.036 122.798 477.036 122.799 477.036 122.799C477.036 122.799 477.035 122.8 477.035 122.8C477.035 122.801 477.035 122.801 477.035 122.801C477.035 122.802 477.035 122.802 477.035 122.802C477.035 122.803 477.035 122.803 477.035 122.804C477.035 122.804 477.034 122.804 477.034 122.804C477.034 122.805 477.034 122.805 477.034 122.806C477.034 122.806 477.034 122.806 477.034 122.806C477.034 122.807 477.034 122.808 477.034 122.808C477.034 122.808 477.034 122.808 477.034 122.808C477.033 122.809 477.033 122.81 477.033 122.81C477.011 122.897 477 122.985 477.001 123.073C477.001 123.073 477.001 123.074 477.001 123.074C477.001 123.075 477.001 123.075 477.001 123.075C477.001 123.076 477.001 123.076 477.001 123.077C477.001 123.077 477.001 123.077 477.001 123.077C477.002 123.206 477.026 123.335 477.074 123.457V123.457C477.074 123.457 477.074 123.458 477.074 123.458C477.074 123.458 477.074 123.459 477.074 123.459C477.074 123.459 477.075 123.46 477.075 123.46C477.075 123.46 477.075 123.461 477.075 123.461C477.075 123.461 477.075 123.461 477.075 123.462C477.075 123.462 477.075 123.463 477.076 123.463C477.076 123.463 477.076 123.463 477.076 123.463C477.076 123.464 477.076 123.464 477.076 123.465C477.096 123.515 477.121 123.564 477.149 123.612C477.201 123.7 477.266 123.779 477.339 123.847C477.339 123.848 477.34 123.848 477.34 123.849C477.34 123.849 477.34 123.849 477.341 123.849C477.341 123.849 477.341 123.85 477.342 123.85L477.342 123.85C477.342 123.85 477.343 123.851 477.343 123.851C477.343 123.851 477.343 123.851 477.343 123.851C477.344 123.852 477.344 123.852 477.345 123.853C477.345 123.853 477.345 123.853 477.345 123.853C477.345 123.853 477.346 123.854 477.346 123.854C477.346 123.854 477.346 123.854 477.346 123.854C477.347 123.855 477.347 123.855 477.348 123.855C477.348 123.856 477.348 123.856 477.348 123.856C477.348 123.856 477.349 123.856 477.349 123.857C477.349 123.857 477.349 123.857 477.35 123.857C477.35 123.857 477.35 123.858 477.351 123.858C477.351 123.858 477.351 123.858 477.351 123.859C477.351 123.859 477.352 123.859 477.352 123.859C477.352 123.86 477.353 123.86 477.353 123.86C477.353 123.86 477.353 123.86 477.354 123.861C477.354 123.861 477.354 123.861 477.354 123.861C477.354 123.861 477.355 123.862 477.355 123.862C477.355 123.862 477.355 123.862 477.356 123.863C477.356 123.863 477.356 123.863 477.357 123.863C477.357 123.864 477.357 123.864 477.358 123.864C477.358 123.864 477.358 123.865 477.358 123.865C477.359 123.865 477.359 123.865 477.359 123.865C477.359 123.866 477.36 123.866 477.36 123.866C477.36 123.866 477.36 123.867 477.361 123.867C477.361 123.867 477.361 123.867 477.362 123.868C477.362 123.868 477.362 123.868 477.363 123.868C477.363 123.869 477.363 123.869 477.363 123.869C477.364 123.869 477.364 123.869 477.364 123.87C477.365 123.87 477.365 123.87 477.365 123.87C477.365 123.87 477.366 123.871 477.366 123.871C477.366 123.871 477.366 123.872 477.366 123.872C477.367 123.872 477.367 123.872 477.368 123.873C477.368 123.873 477.368 123.873 477.368 123.873C477.368 123.873 477.369 123.874 477.369 123.874C477.369 123.874 477.369 123.874 477.369 123.874C477.37 123.875 477.37 123.875 477.371 123.875C477.371 123.875 477.371 123.875 477.371 123.876C477.371 123.876 477.372 123.876 477.372 123.877C477.372 123.877 477.372 123.877 477.372 123.877C477.373 123.877 477.373 123.878 477.374 123.878C477.374 123.878 477.374 123.878 477.374 123.878C477.374 123.879 477.375 123.879 477.375 123.879C477.375 123.879 477.375 123.879 477.375 123.879C477.376 123.88 477.377 123.88 477.377 123.881C477.377 123.881 477.377 123.881 477.377 123.881C477.377 123.881 477.378 123.882 477.379 123.882C477.379 123.883 477.38 123.883 477.38 123.883C477.461 123.951 477.551 124.006 477.648 124.046C477.648 124.046 477.649 124.046 477.649 124.047H477.65C477.65 124.047 477.651 124.047 477.651 124.048H477.651C477.652 124.048 477.653 124.048 477.653 124.048H477.653C477.654 124.049 477.654 124.049 477.655 124.049H477.655C477.656 124.049 477.656 124.049 477.657 124.05H477.657C477.658 124.05 477.658 124.05 477.659 124.051C477.659 124.051 477.659 124.051 477.659 124.051C477.659 124.051 477.66 124.051 477.661 124.052C477.661 124.052 477.661 124.052 477.661 124.052C477.661 124.052 477.662 124.052 477.662 124.052C477.663 124.052 477.663 124.052 477.663 124.052C477.663 124.052 477.664 124.053 477.664 124.053C477.664 124.053 477.665 124.053 477.665 124.053C477.665 124.053 477.666 124.053 477.666 124.053C477.666 124.053 477.667 124.054 477.667 124.054C477.668 124.054 477.668 124.054 477.669 124.054C477.669 124.055 477.67 124.055 477.67 124.055C477.67 124.055 477.67 124.055 477.671 124.055C477.671 124.055 477.671 124.055 477.672 124.056C477.672 124.056 477.672 124.056 477.673 124.056C477.673 124.056 477.674 124.056 477.675 124.057C477.676 124.057 477.676 124.057 477.677 124.057C477.678 124.058 477.678 124.058 477.679 124.058C477.68 124.058 477.68 124.059 477.681 124.059C477.682 124.059 477.682 124.06 477.683 124.06C477.684 124.06 477.684 124.06 477.685 124.061C477.686 124.061 477.686 124.061 477.687 124.061C477.688 124.061 477.688 124.062 477.689 124.062C477.69 124.062 477.69 124.062 477.691 124.063C477.692 124.063 477.693 124.063 477.693 124.064C477.694 124.064 477.695 124.064 477.695 124.064C477.696 124.065 477.697 124.065 477.698 124.065C477.698 124.065 477.699 124.065 477.7 124.066C477.7 124.066 477.701 124.066 477.702 124.067C477.702 124.067 477.703 124.067 477.704 124.067C477.704 124.068 477.705 124.068 477.706 124.068C477.706 124.068 477.707 124.069 477.708 124.069C477.709 124.069 477.709 124.069 477.71 124.07C477.711 124.07 477.711 124.07 477.712 124.07C477.713 124.071 477.713 124.071 477.714 124.071C477.715 124.071 477.715 124.072 477.716 124.072C477.717 124.072 477.718 124.072 477.718 124.073C477.719 124.073 477.719 124.073 477.72 124.073C477.721 124.074 477.722 124.074 477.722 124.074C477.723 124.074 477.724 124.075 477.724 124.075C477.725 124.075 477.726 124.075 477.727 124.076C477.727 124.076 477.728 124.076 477.729 124.076C477.729 124.077 477.73 124.077 477.731 124.077C477.731 124.077 477.732 124.077 477.733 124.078C477.734 124.078 477.734 124.078 477.735 124.078C477.735 124.078 477.736 124.079 477.737 124.079C477.737 124.079 477.738 124.079 477.739 124.08C477.74 124.08 477.741 124.08 477.741 124.08C477.742 124.08 477.742 124.08 477.743 124.081C477.744 124.081 477.745 124.081 477.745 124.081C477.746 124.081 477.747 124.082 477.748 124.082C477.748 124.082 477.749 124.082 477.75 124.082C477.75 124.083 477.751 124.083 477.752 124.083C477.752 124.083 477.753 124.083 477.754 124.083C477.754 124.084 477.755 124.084 477.756 124.084C477.757 124.084 477.757 124.084 477.758 124.084C477.759 124.085 477.759 124.085 477.76 124.085C477.761 124.085 477.761 124.085 477.762 124.085C477.763 124.086 477.764 124.086 477.764 124.086C477.765 124.086 477.766 124.086 477.766 124.086C477.767 124.086 477.768 124.087 477.769 124.087C477.769 124.087 477.77 124.087 477.771 124.087C477.772 124.088 477.772 124.088 477.773 124.088C477.774 124.088 477.774 124.088 477.775 124.088C477.776 124.089 477.776 124.089 477.777 124.089C477.777 124.089 477.778 124.089 477.779 124.089C477.78 124.09 477.781 124.09 477.781 124.09C477.782 124.09 477.783 124.09 477.783 124.091C477.784 124.091 477.785 124.091 477.785 124.091C477.786 124.091 477.787 124.091 477.788 124.092C477.788 124.092 477.789 124.092 477.79 124.092C477.791 124.092 477.791 124.092 477.792 124.093C477.793 124.093 477.793 124.093 477.794 124.093C477.795 124.093 477.796 124.093 477.796 124.093C477.797 124.094 477.798 124.094 477.798 124.094C477.799 124.094 477.8 124.094 477.8 124.094C477.801 124.094 477.802 124.095 477.803 124.095C477.803 124.095 477.804 124.095 477.805 124.095C477.806 124.095 477.806 124.096 477.807 124.096C477.808 124.096 477.809 124.096 477.809 124.096C477.81 124.096 477.809 124.096 477.811 124.097C477.812 124.097 477.814 124.097 477.815 124.098C477.893 124.116 477.973 124.126 478.055 124.127C478.056 124.127 478.056 124.127 478.057 124.127C484.73 124.151 491.464 124.164 498.21 124.164C504.957 124.164 511.716 124.151 518.442 124.127C519.027 124.124 519.5 123.648 519.498 123.063C519.495 122.478 519.015 122.004 518.434 122.007C505.584 122.054 492.608 122.056 479.837 122.013C480.704 120.423 481.612 118.785 482.582 117.063H490.541C491.126 117.063 491.601 116.589 491.601 116.004C491.601 115.418 491.126 114.944 490.541 114.944H483.781C484.56 113.575 485.381 112.15 486.253 110.648C486.271 110.617 486.287 110.586 486.301 110.554C486.638 109.814 487.006 109.144 487.396 108.436C487.78 107.737 488.177 107.015 488.542 106.219C488.586 106.141 488.63 106.063 488.674 105.986H496.662C497.247 105.986 497.722 105.511 497.722 104.926C497.722 104.341 497.247 103.866 496.662 103.866H489.87C490.539 102.672 491.199 101.481 491.845 100.314C492.824 98.5464 493.832 96.7246 494.855 94.9251H506.652L506.653 99.8358C506.653 100.421 507.128 100.895 507.713 100.895H511.29C511.571 100.895 511.841 100.784 512.039 100.585C512.238 100.386 512.35 100.116 512.35 99.8353L512.348 94.9251H524.135C525.776 97.9007 527.445 100.905 529.093 103.866H522.31C521.725 103.866 521.25 104.341 521.25 104.926C521.25 105.511 521.725 105.986 522.31 105.986H530.273C530.474 106.346 530.674 106.706 530.874 107.064C532.319 109.659 533.788 112.297 535.256 114.944H528.536C527.951 114.944 527.476 115.418 527.476 116.004C527.476 116.589 527.951 117.063 528.536 117.063H536.43C537.345 118.718 538.258 120.374 539.161 122.021C534.316 122.056 529.579 122.051 524.736 122.007C524.152 121.998 523.672 122.472 523.667 123.057C523.661 123.642 524.131 124.121 524.717 124.126C527.439 124.151 530.127 124.164 532.821 124.164C535.513 124.164 538.211 124.151 540.951 124.126C541.143 124.125 541.327 124.071 541.486 123.976C541.486 123.976 541.487 123.975 541.488 123.975C541.488 123.975 541.489 123.974 541.489 123.974C541.489 123.974 541.489 123.974 541.489 123.974C541.49 123.974 541.49 123.973 541.491 123.973L541.491 123.973C541.491 123.973 541.492 123.972 541.492 123.972C541.493 123.972 541.493 123.972 541.493 123.972C541.493 123.972 541.494 123.971 541.494 123.971C541.494 123.971 541.494 123.971 541.494 123.971C541.495 123.97 541.495 123.97 541.496 123.97C541.496 123.97 541.496 123.97 541.496 123.97C541.497 123.97 541.497 123.969 541.497 123.969C541.498 123.969 541.498 123.969 541.498 123.969C541.498 123.968 541.499 123.968 541.499 123.968C541.499 123.968 541.499 123.968 541.5 123.968C541.5 123.967 541.5 123.967 541.501 123.967C541.501 123.967 541.501 123.967 541.501 123.966C541.502 123.966 541.502 123.966 541.502 123.966C541.502 123.966 541.503 123.965 541.503 123.965C541.503 123.965 541.504 123.965 541.504 123.965C541.504 123.964 541.504 123.964 541.505 123.964C541.505 123.964 541.505 123.964 541.506 123.964C541.506 123.963 541.506 123.963 541.507 123.963C541.507 123.963 541.507 123.963 541.507 123.963C541.508 123.962 541.508 123.962 541.508 123.962C541.509 123.962 541.509 123.962 541.509 123.962C541.509 123.962 541.51 123.961 541.51 123.961C541.51 123.961 541.511 123.961 541.511 123.961C541.511 123.961 541.512 123.96 541.512 123.96C541.512 123.96 541.512 123.96 541.512 123.96C541.513 123.96 541.513 123.959 541.514 123.959C541.514 123.959 541.514 123.959 541.514 123.959C541.514 123.958 541.515 123.958 541.515 123.958C541.515 123.958 541.516 123.958 541.516 123.958C541.516 123.957 541.516 123.957 541.517 123.957C541.517 123.957 541.517 123.957 541.517 123.957C541.518 123.956 541.518 123.956 541.518 123.956C541.519 123.956 541.519 123.956 541.519 123.955C541.519 123.955 541.52 123.955 541.52 123.955C541.52 123.955 541.52 123.955 541.52 123.954C541.521 123.954 541.521 123.954 541.522 123.953H541.522C541.522 123.953 541.523 123.953 541.524 123.952C541.524 123.952 541.525 123.951 541.525 123.951H541.525C541.526 123.951 541.526 123.95 541.527 123.95C541.527 123.95 541.527 123.95 541.527 123.95C541.528 123.95 541.528 123.949 541.529 123.949C541.529 123.949 541.529 123.949 541.529 123.949C541.529 123.948 541.53 123.948 541.53 123.948C541.587 123.91 541.639 123.867 541.688 123.818C541.688 123.818 541.688 123.818 541.688 123.818C541.688 123.818 541.689 123.817 541.689 123.817C541.689 123.817 541.689 123.816 541.69 123.816C541.69 123.816 541.69 123.816 541.691 123.815C541.691 123.815 541.691 123.815 541.692 123.814C541.692 123.814 541.692 123.814 541.692 123.813C541.693 123.813 541.693 123.813 541.693 123.812C541.693 123.812 541.694 123.812 541.694 123.812C541.755 123.75 541.809 123.679 541.855 123.602C541.864 123.585 541.873 123.568 541.882 123.551C541.882 123.551 541.882 123.551 541.882 123.551C541.882 123.551 541.883 123.55 541.883 123.55C541.883 123.55 541.883 123.55 541.883 123.549C541.883 123.549 541.884 123.548 541.884 123.548L541.884 123.548C541.884 123.547 541.885 123.546 541.885 123.546C541.885 123.546 541.885 123.546 541.885 123.546C541.885 123.545 541.886 123.545 541.886 123.544C541.886 123.544 541.886 123.544 541.886 123.544C541.886 123.543 541.887 123.543 541.887 123.542C541.887 123.542 541.887 123.542 541.887 123.542C541.887 123.542 541.887 123.541 541.888 123.541C541.888 123.54 541.888 123.54 541.888 123.54C541.888 123.54 541.888 123.539 541.889 123.539C541.889 123.539 541.889 123.538 541.889 123.538C541.889 123.538 541.889 123.537 541.89 123.537C541.89 123.537 541.89 123.536 541.89 123.536C541.89 123.536 541.89 123.535 541.89 123.535C541.89 123.535 541.89 123.535 541.891 123.534C541.891 123.534 541.891 123.533 541.891 123.533C541.891 123.533 541.891 123.533 541.891 123.532C541.891 123.532 541.892 123.531 541.892 123.531C541.892 123.531 541.892 123.531 541.892 123.53C541.892 123.53 541.892 123.529 541.893 123.529C541.893 123.529 541.893 123.529 541.893 123.528C541.893 123.528 541.893 123.528 541.894 123.527C541.894 123.527 541.894 123.527 541.894 123.526C541.894 123.526 541.894 123.526 541.894 123.525C541.894 123.525 541.895 123.525 541.895 123.524C541.895 123.524 541.895 123.524 541.895 123.523C541.895 123.523 541.895 123.523 541.896 123.522C541.896 123.522 541.896 123.522 541.896 123.521C541.896 123.521 541.896 123.521 541.896 123.52C541.896 123.52 541.897 123.52 541.897 123.519C541.897 123.519 541.897 123.519 541.897 123.518C541.897 123.518 541.897 123.518 541.897 123.517C541.898 123.517 541.898 123.517 541.898 123.516C541.898 123.516 541.898 123.516 541.898 123.515C541.898 123.515 541.898 123.515 541.899 123.514C541.899 123.514 541.899 123.514 541.899 123.513C541.899 123.513 541.899 123.513 541.899 123.512C541.899 123.512 541.9 123.511 541.9 123.511C541.9 123.511 541.9 123.511 541.9 123.51C541.9 123.51 541.9 123.51 541.9 123.509C541.901 123.509 541.901 123.509 541.901 123.508C541.901 123.508 541.901 123.508 541.901 123.507C541.901 123.507 541.902 123.507 541.902 123.506C541.902 123.506 541.902 123.506 541.902 123.505C541.902 123.505 541.902 123.504 541.902 123.504C541.903 123.504 541.903 123.504 541.903 123.503C541.903 123.503 541.903 123.502 541.903 123.502C541.903 123.502 541.903 123.502 541.904 123.501C541.904 123.501 541.904 123.5 541.904 123.5C541.904 123.5 541.904 123.5 541.904 123.499C541.904 123.499 541.905 123.499 541.905 123.498C541.905 123.498 541.905 123.497 541.905 123.497C541.905 123.497 541.905 123.497 541.905 123.496C541.906 123.496 541.906 123.496 541.906 123.495C541.906 123.495 541.906 123.494 541.906 123.494C541.906 123.494 541.906 123.494 541.907 123.493C541.907 123.493 541.907 123.493 541.907 123.492C541.907 123.492 541.907 123.491 541.907 123.491C541.907 123.491 541.908 123.491 541.908 123.49C541.908 123.49 541.908 123.489 541.908 123.489C541.908 123.489 541.908 123.488 541.908 123.488C541.909 123.488 541.909 123.487 541.909 123.487C541.909 123.487 541.909 123.486 541.909 123.486C541.909 123.486 541.909 123.486 541.91 123.485C541.91 123.485 541.91 123.484 541.91 123.484C541.91 123.484 541.91 123.483 541.91 123.483C541.91 123.483 541.911 123.483 541.911 123.482C541.911 123.482 541.911 123.481 541.911 123.481C541.911 123.481 541.911 123.481 541.911 123.48C541.912 123.48 541.912 123.479 541.912 123.479C541.912 123.479 541.912 123.479 541.912 123.478C541.912 123.478 541.912 123.477 541.913 123.477C541.913 123.477 541.913 123.477 541.913 123.476C541.913 123.476 541.913 123.475 541.913 123.475C541.913 123.475 541.913 123.475 541.913 123.475C541.914 123.474 541.914 123.474 541.914 123.473C541.914 123.473 541.914 123.473 541.914 123.473C541.914 123.472 541.914 123.472 541.915 123.471C541.915 123.471 541.915 123.471 541.915 123.47C541.915 123.47 541.915 123.47 541.915 123.469C541.915 123.469 541.915 123.469 541.916 123.468C541.916 123.468 541.916 123.468 541.916 123.467C541.916 123.467 541.916 123.467 541.916 123.467C541.916 123.466 541.916 123.466 541.917 123.465C541.917 123.465 541.917 123.465 541.917 123.465C541.917 123.464 541.917 123.464 541.918 123.463C541.918 123.463 541.918 123.463 541.918 123.463C541.918 123.462 541.918 123.462 541.918 123.461C541.918 123.461 541.918 123.461 541.918 123.461C541.919 123.46 541.919 123.46 541.919 123.459C541.919 123.459 541.919 123.459 541.919 123.459C541.919 123.459 541.919 123.458 541.92 123.457C541.92 123.457 541.92 123.457 541.92 123.457C541.92 123.457 541.92 123.456 541.92 123.456C541.92 123.455 541.92 123.455 541.92 123.455C541.92 123.455 541.921 123.454 541.921 123.454C541.921 123.454 541.921 123.453 541.921 123.453C541.921 123.453 541.921 123.452 541.921 123.452C541.921 123.452 541.921 123.452 541.922 123.451C541.922 123.451 541.922 123.45 541.922 123.45C541.922 123.45 541.922 123.45 541.922 123.449C541.922 123.449 541.923 123.448 541.923 123.448V123.448C541.923 123.447 541.923 123.447 541.923 123.446C541.923 123.446 541.923 123.446 541.923 123.446C541.924 123.445 541.924 123.445 541.924 123.444V123.444C541.924 123.443 541.925 123.443 541.925 123.442V123.442C541.925 123.442 541.925 123.441 541.926 123.44C541.926 123.44 541.926 123.44 541.926 123.44C541.926 123.44 541.926 123.439 541.927 123.438C541.927 123.438 541.927 123.438 541.927 123.438C541.927 123.438 541.927 123.437 541.927 123.436V123.436C541.927 123.436 541.928 123.435 541.928 123.435V123.434C541.928 123.434 541.928 123.433 541.929 123.432C541.929 123.432 541.929 123.431 541.929 123.43C542.04 123.148 542.018 122.83 541.87 122.56ZM508.772 98.7801L508.77 91.6792H510.228L510.23 98.7801H508.772Z" fill="#6EDDA1"/>
<g clip-path="url(#clip6)">
<path d="M315.999 140.167H314.832V123.834C314.835 122.906 314.466 122.015 313.808 121.36C312.423 120.038 310.243 120.038 308.858 121.36C308.199 122.015 307.83 122.906 307.833 123.834V126.168H268.167V123.834C268.17 122.906 267.801 122.015 267.143 121.36C265.758 120.038 263.578 120.038 262.193 121.36C261.534 122.015 261.165 122.906 261.168 123.834V140.167H260.001C259.357 140.167 258.834 140.689 258.834 141.334V151.833C258.834 152.478 259.357 153 260.001 153H315.999C316.643 153 317.166 152.478 317.166 151.833V141.334C317.166 140.689 316.643 140.167 315.999 140.167ZM310.166 136.667V123.834C310.167 123.525 310.29 123.229 310.508 123.01C310.969 122.567 311.696 122.567 312.157 123.01C312.375 123.229 312.498 123.525 312.499 123.834V140.167H310.166V136.667ZM297.333 128.501H307.833V130.834H297.333V128.501ZM297.333 133.167H307.833V135.501H297.333V133.167ZM281 128.501H295V130.834H281V128.501V128.501ZM281 133.167H295V135.501H281V133.167V133.167ZM268.167 128.501H278.667V130.834H268.167V128.501V128.501ZM268.167 133.167H278.667V135.501H268.167V133.167V133.167ZM268.167 137.834H307.833V140.167H268.167V137.834V137.834ZM263.501 123.834C263.502 123.525 263.625 123.229 263.843 123.01C264.304 122.567 265.031 122.567 265.492 123.01C265.71 123.229 265.833 123.525 265.834 123.834V140.167H263.501V123.834V123.834ZM314.832 150.667H261.168V142.5H308.999H314.832V150.667Z" fill="#FF8B8B"/>
<path d="M316.824 109.01L314.732 106.918L316.824 104.826C317.272 104.363 317.259 103.625 316.795 103.177C316.343 102.74 315.626 102.74 315.174 103.177L313.082 105.269L310.991 103.177C310.527 102.729 309.789 102.742 309.341 103.205C308.904 103.658 308.904 104.374 309.341 104.826L311.433 106.918L309.341 109.01C308.886 109.466 308.886 110.204 309.341 110.66C309.797 111.115 310.535 111.115 310.991 110.66L313.082 108.568L315.174 110.66C315.638 111.107 316.376 111.094 316.824 110.631C317.261 110.179 317.261 109.462 316.824 109.01Z" fill="#FF8B8B"/>
<path d="M320.666 98.1683H309.086C309.06 98.1403 309.032 98.1123 309.005 98.0855C307.747 96.8273 306.216 95.8753 304.531 95.3031L306.621 87.9883C306.797 87.3687 306.438 86.7233 305.818 86.5465C305.538 86.4668 305.239 86.4945 304.978 86.6244L299.391 89.4185L298.483 83.9773C298.378 83.3418 297.777 82.9122 297.141 83.0178C296.945 83.0504 296.759 83.133 296.604 83.2575L291.711 87.1716L288.933 83.4688C288.704 83.1533 288.329 82.9771 287.939 83.0022C287.554 83.0243 287.205 83.2358 287.006 83.5668L284.15 88.3185L277.012 83.2203C276.487 82.846 275.759 82.9676 275.384 83.492C275.196 83.7554 275.126 84.0851 275.19 84.4021L276.025 88.5775L270.693 87.6897C270.29 87.6245 269.881 87.7732 269.614 88.0828C269.348 88.3936 269.265 88.8206 269.393 89.2086L271.432 95.3218C269.764 95.8946 268.249 96.8397 267.001 98.0855C266.974 98.1123 266.946 98.1403 266.92 98.1683H255.334C254.69 98.1683 254.168 98.6907 254.168 99.335V114.501C254.168 115.145 254.69 115.668 255.334 115.668H268.25C270.269 117.178 272.722 117.997 275.244 118.001H281C281.163 118 281.324 117.964 281.473 117.897C281.51 117.897 281.546 117.907 281.584 117.907C283.545 117.922 285.442 117.207 286.906 115.901C287.32 115.523 287.687 115.097 288 114.631C288.313 115.098 288.68 115.527 289.094 115.907C290.559 117.21 292.456 117.923 294.416 117.907C294.454 117.907 294.49 117.897 294.527 117.897C294.676 117.964 294.837 118 295 118.001H300.756C303.28 117.998 305.735 117.18 307.756 115.668H320.666C321.31 115.668 321.832 115.145 321.832 114.501V99.335C321.832 98.6907 321.31 98.1683 320.666 98.1683ZM272.914 107.408C273.242 107.695 273.607 107.935 274 108.121V110.921C274.02 112.709 274.748 114.416 276.025 115.668H275.244C273.111 115.664 271.043 114.932 269.383 113.593C269.176 113.426 268.917 113.334 268.65 113.334H256.501V100.502H267.436C267.768 100.502 268.084 100.36 268.305 100.113L268.43 99.9719C268.5 99.8914 268.569 99.8109 268.644 99.7386C270.39 97.9814 272.767 96.9959 275.244 97.0017H276.307C276.931 97.0091 277.531 97.241 277.997 97.655C278.417 98.0194 278.661 98.5459 278.667 99.1016V104.235C278.66 104.79 278.416 105.317 277.996 105.68C276.986 106.547 275.495 106.547 274.485 105.68C274.065 105.317 273.82 104.79 273.814 104.235C273.814 103.591 273.291 103.068 272.647 103.068C272.003 103.068 271.481 103.591 271.481 104.235C271.492 105.447 272.012 106.599 272.914 107.408ZM286.833 110.918C286.823 112.171 286.278 113.359 285.337 114.185C283.189 116.066 279.98 116.066 277.832 114.185C276.89 113.359 276.345 112.171 276.334 110.918V108.649C277.526 108.64 278.674 108.199 279.566 107.408C280.469 106.599 280.989 105.447 281 104.235V99.1016C280.993 98.4351 280.827 97.7799 280.515 97.1907C282.236 96.8493 284.018 97.3289 285.335 98.488C286.277 99.3128 286.821 100.5 286.833 101.751V110.918V110.918ZM288 98.0388C287.687 97.5713 287.32 97.1427 286.906 96.7626C285.407 95.4284 283.459 94.7125 281.453 94.7595C281.31 94.6992 281.156 94.6683 281 94.6685H275.244C274.731 94.6737 274.22 94.7126 273.712 94.7851L272.22 90.3053L277.308 91.1522C277.686 91.2138 278.071 91.0872 278.338 90.8127C278.606 90.5364 278.72 90.1457 278.644 89.7686L278.06 86.8275L283.826 90.9457C284.35 91.3196 285.079 91.1976 285.453 90.6729C285.471 90.6478 285.488 90.6222 285.503 90.5958L288.107 86.2571L290.567 89.5353C290.953 90.0508 291.684 90.1555 292.2 89.7691C292.21 89.7616 292.219 89.7542 292.229 89.7465L296.509 86.3224L297.349 91.3599C297.455 91.9956 298.056 92.4252 298.691 92.3197C298.806 92.3008 298.917 92.2646 299.021 92.2127L303.649 89.8981L302.256 94.7758C301.759 94.7077 301.258 94.6718 300.756 94.6685H295C294.845 94.6683 294.693 94.6992 294.551 94.7595C292.543 94.7125 290.592 95.4306 289.094 96.7684C288.68 97.1464 288.313 97.5729 288 98.0388ZM299.666 110.918C299.656 112.171 299.111 113.359 298.169 114.185C296.022 116.066 292.812 116.066 290.665 114.185C289.723 113.359 289.178 112.171 289.167 110.918V101.751C289.177 100.499 289.722 99.3102 290.663 98.4845C291.981 97.3244 293.763 96.8444 295.485 97.186C295.173 97.7766 295.006 98.4335 295 99.1016V104.235C295.011 105.447 295.531 106.599 296.434 107.408C297.326 108.199 298.474 108.64 299.666 108.649V110.918V110.918ZM319.499 113.334H307.35C307.083 113.334 306.825 113.426 306.617 113.593C304.956 114.932 302.889 115.664 300.756 115.668H299.975C301.252 114.415 301.98 112.707 302 110.918V108.119C302.393 107.933 302.758 107.693 303.084 107.406C303.988 106.597 304.509 105.445 304.519 104.232C304.519 103.588 303.997 103.066 303.353 103.066C302.709 103.066 302.186 103.588 302.186 104.232C302.18 104.788 301.935 105.314 301.515 105.678C300.505 106.545 299.013 106.545 298.003 105.678C297.584 105.314 297.34 104.789 297.333 104.235V99.1016C297.34 98.546 297.584 98.0199 298.004 97.6562C298.47 97.2416 299.07 97.0091 299.693 97.0017H300.756C303.233 96.9949 305.609 97.9792 307.356 99.7351C307.431 99.8109 307.5 99.8914 307.57 99.9684L307.695 100.11C307.916 100.357 308.232 100.498 308.564 100.498H319.499V113.334V113.334Z" fill="#FF8B8B"/>
<path d="M264.567 106.918L266.659 104.826C267.114 104.371 267.114 103.632 266.659 103.177C266.203 102.721 265.465 102.721 265.009 103.177L262.918 105.269L260.826 103.177C260.378 102.713 259.64 102.701 259.176 103.148C258.713 103.596 258.7 104.334 259.147 104.798C259.157 104.807 259.166 104.817 259.176 104.826L261.268 106.918L259.176 109.01C258.713 109.458 258.7 110.196 259.147 110.66C259.595 111.123 260.334 111.136 260.797 110.688C260.807 110.679 260.816 110.669 260.826 110.66L262.918 108.568L265.009 110.66C265.473 111.107 266.211 111.094 266.659 110.631C267.096 110.179 267.096 109.462 266.659 109.01L264.567 106.918Z" fill="#FF8B8B"/>
</g>
<defs>
<clipPath id="clip0">
<rect width="50" height="50" fill="white" transform="translate(51 597.937) rotate(-23.5)"/>
</clipPath>
<clipPath id="clip1">
<rect width="100" height="100" fill="white" transform="translate(859 105)"/>
</clipPath>
<clipPath id="clip2">
<rect width="70" height="70" fill="white" transform="translate(24 41.1173) rotate(-15)"/>
</clipPath>
<clipPath id="clip3">
<rect width="100.75" height="100.749" fill="white" transform="translate(960.555 381) rotate(22.5)"/>
</clipPath>
<clipPath id="clip4">
<rect width="60" height="60" fill="white" transform="translate(635.449 235) rotate(11)"/>
</clipPath>
<clipPath id="clip5">
<rect width="50" height="50" fill="white" transform="translate(113.358 201) rotate(5)"/>
</clipPath>
<clipPath id="clip6">
<rect width="70" height="70" fill="white" transform="translate(253 83)"/>
</clipPath>
</defs>
</svg>
